<svg width="250" height="250" viewBox="0 0 250 250" fill="none" xmlns="http://www.w3.org/2000/svg">
<mask id="mask0_107_828" style="mask-type:luminance" maskUnits="userSpaceOnUse" x="0" y="0" width="250" height="250">
<path d="M0 1.52588e-05H250V250H0V1.52588e-05Z" fill="white"/>
</mask>
<g mask="url(#mask0_107_828)">
<path d="M129.894 24.5201C127.079 23.1911 123.95 23.0411 121.961 23.3441C120.097 23.6276 117.4 24.3386 115.131 26.1161C113.722 27.2201 112.672 28.5951 112.012 30.2031C111.231 32.1076 110.992 34.3531 111.304 36.8776C111.351 37.2561 111.544 37.5921 111.849 37.8231C112.155 38.0551 112.533 38.1511 112.913 38.0931L117.799 37.3501C118.489 37.2451 119.003 36.6406 118.996 35.9436C118.979 34.3786 119.496 31.6606 123.143 31.0411C125.922 30.5706 127.377 32.4111 127.874 33.2251C128.683 34.5491 128.788 36.2496 128.154 37.7736C127.18 40.1151 124.838 40.8071 123.529 41.0111C122.023 41.2456 120.984 42.6551 121.212 44.1526L122.012 49.4101C122.128 50.1781 122.848 50.7076 123.616 50.5911L128.376 49.8666C129.144 49.7496 129.674 49.0301 129.557 48.2626L129.389 47.1576C129.385 47.1311 129.398 47.1056 129.422 47.0931C130.443 46.5506 132.394 45.3181 133.992 43.1601C136.032 40.4046 136.781 37.1351 136.219 33.4421C135.415 28.1566 132.336 25.6731 129.894 24.5201Z" fill="#ECECEC"/>
<path d="M126.434 51.5163L126.017 51.5798C124.026 51.8823 122.653 53.7488 122.956 55.7393C123.259 57.7303 125.125 59.1038 127.116 58.8008L127.532 58.7373C129.523 58.4343 130.897 56.5683 130.594 54.5773C130.291 52.5868 128.425 51.2133 126.434 51.5163Z" fill="#ECECEC"/>
<path d="M31.8355 109.391C30.4215 107.623 28.425 106.524 27.028 106.086C25.72 105.675 23.73 105.277 21.679 105.713C20.405 105.984 19.2795 106.547 18.334 107.386C17.2145 108.381 16.3405 109.772 15.737 111.521C15.6465 111.783 15.6655 112.065 15.791 112.313C15.9165 112.563 16.133 112.746 16.3995 112.83L19.83 113.907C20.314 114.059 20.8435 113.828 21.0615 113.37C21.551 112.343 22.758 110.732 25.339 111.493C27.3055 112.075 27.6675 113.743 27.732 114.433C27.8375 115.557 27.362 116.702 26.4605 117.495C25.075 118.713 23.3235 118.417 22.403 118.131C21.344 117.803 20.214 118.392 19.884 119.443L18.7255 123.134C18.556 123.673 18.857 124.25 19.396 124.419L22.7385 125.468C23.2775 125.637 23.8535 125.336 24.0225 124.797L24.266 124.022C24.272 124.003 24.2885 123.99 24.3085 123.99C25.149 123.962 26.818 123.781 28.5525 122.881C30.7665 121.733 32.3015 119.837 33.1155 117.244C34.2805 113.533 33.0625 110.925 31.8355 109.391Z" fill="#ECECEC"/>
<path d="M20.9419 125.925L20.6494 125.833C19.2519 125.394 17.7579 126.174 17.3189 127.572C16.8804 128.97 17.6604 130.464 19.0579 130.903L19.3504 130.995C20.7484 131.433 22.2424 130.653 22.6809 129.255C23.1199 127.858 22.3399 126.364 20.9419 125.925Z" fill="#ECECEC"/>
<path d="M180.024 229.19C192.193 228.662 207.63 224.776 217.071 216.835C204.04 217.172 190.863 221.567 180.024 229.19Z" fill="#ECECEC"/>
<path d="M188.49 214.798C200.659 214.269 216.096 210.383 225.537 202.443C212.507 202.78 199.33 207.174 188.49 214.798Z" fill="#ECECEC"/>
<path d="M197.591 201.089C209.76 200.56 225.197 196.674 234.638 188.734C221.608 189.071 208.431 193.465 197.591 201.089Z" fill="#ECECEC"/>
<path d="M207.747 186.948C219.853 184.93 234.775 179.212 243.148 170.246C230.155 172.181 217.563 178.122 207.747 186.948Z" fill="#ECECEC"/>
<path d="M216.674 176.514C227.423 170.363 239.402 159.868 243.861 148.79C232.234 155.185 222.564 165.046 216.674 176.514Z" fill="#ECECEC"/>
<path d="M212.347 181.446C215.657 169.374 216.685 153.144 211.828 141.634C208.058 154.496 208.242 168.656 212.347 181.446Z" fill="#ECECEC"/>
<path d="M203.735 192.982C206.081 180.177 205.664 163.229 199.536 151.646C196.782 165.307 198.276 180.01 203.735 192.982Z" fill="#ECECEC"/>
<path d="M193.473 207.13C195.819 194.325 195.402 177.377 189.274 165.794C186.52 179.455 188.014 194.158 193.473 207.13Z" fill="#ECECEC"/>
<path d="M182.534 225.055C184.88 212.25 184.463 195.302 178.335 183.719C175.581 197.38 177.075 212.083 182.534 225.055Z" fill="#ECECEC"/>
<path d="M178.365 231.674C176.603 234.929 175.222 237.587 174.308 239.444C173.865 240.346 173.515 241.06 173.257 241.584C173.152 241.809 173.066 241.994 172.995 242.145C172.938 242.273 172.912 242.34 172.919 242.343C172.926 242.347 172.966 242.287 173.037 242.166C173.119 242.021 173.218 241.843 173.34 241.626C173.616 241.112 173.992 240.411 174.467 239.527C175.43 237.696 176.854 235.063 178.651 231.831C180.439 228.594 182.649 224.785 185.164 220.593C187.701 216.413 190.563 211.862 193.684 207.16C199.94 197.77 206.061 189.582 210.631 183.768C212.916 180.86 214.79 178.526 216.103 176.928C216.734 176.147 217.234 175.528 217.6 175.074C217.753 174.877 217.878 174.716 217.981 174.584C218.064 174.472 218.104 174.412 218.098 174.407C218.092 174.402 218.04 174.452 217.945 174.554C217.833 174.678 217.696 174.829 217.529 175.014C217.147 175.454 216.625 176.055 215.966 176.813C214.609 178.376 212.695 180.681 210.376 183.565C205.736 189.333 199.565 197.501 193.3 206.905" fill="#E1E1E1"/>
<path d="M157.363 147.495C161.805 136.53 164.598 121.323 161.391 109.779C156.432 121.428 155 134.843 157.363 147.495Z" fill="#ECECEC"/>
<path d="M148.062 134.209C152.504 123.244 155.297 108.038 152.09 96.4934C147.131 108.142 145.699 121.557 148.062 134.209Z" fill="#ECECEC"/>
<path d="M139.621 120.638C144.063 109.673 146.856 94.4669 143.649 82.9224C138.69 94.5714 137.258 107.986 139.621 120.638Z" fill="#ECECEC"/>
<path d="M131.224 105.961C134.324 94.4519 135.291 78.9614 130.747 67.9464C127.216 80.2074 127.385 93.7284 131.224 105.961Z" fill="#ECECEC"/>
<path d="M125.606 93.8651C124.507 81.8871 120.066 67.0701 112.077 58.6616C113.037 71.5141 117.849 84.0356 125.606 93.8651Z" fill="#ECECEC"/>
<path d="M128.218 99.678C118.887 91.884 104.962 84.429 92.8335 84.078C102.676 92.597 115.262 98.146 128.218 99.678Z" fill="#ECECEC"/>
<path d="M134.937 111.94C124.57 104.702 109.427 98.2347 96.7212 98.9762C107.681 106.92 121.273 111.531 134.937 111.94Z" fill="#ECECEC"/>
<path d="M143.298 126.713C132.931 119.475 117.788 113.008 105.082 113.75C116.042 121.693 129.634 126.304 143.298 126.713Z" fill="#ECECEC"/>
<path d="M154.722 143.609C144.355 136.371 129.213 129.904 116.507 130.645C127.466 138.589 141.059 143.2 154.722 143.609Z" fill="#ECECEC"/>
<path d="M158.89 149.962C161.054 152.832 162.846 155.125 164.118 156.681C164.736 157.436 165.225 158.034 165.584 158.472C165.741 158.657 165.869 158.807 165.975 158.931C166.065 159.033 166.114 159.082 166.12 159.077C166.126 159.073 166.089 159.013 166.01 158.902C165.915 158.771 165.798 158.611 165.655 158.416C165.312 157.965 164.845 157.35 164.255 156.574C163.026 154.985 161.274 152.665 159.144 149.773C157.005 146.888 154.531 143.398 151.841 139.485C149.172 135.558 146.305 131.193 143.41 126.539C137.637 117.224 132.872 108.513 129.578 102.13C127.931 98.9389 126.624 96.3419 125.742 94.5364C125.306 93.6639 124.961 92.9729 124.708 92.4664C124.596 92.2519 124.504 92.0764 124.429 91.9324C124.363 91.8134 124.327 91.7539 124.32 91.7574C124.313 91.7604 124.336 91.8264 124.387 91.9519C124.452 92.1009 124.53 92.2824 124.626 92.5049C124.861 93.0204 125.181 93.7239 125.585 94.6119C126.419 96.4414 127.683 99.0614 129.296 102.274C132.52 108.7 137.248 117.448 143.03 126.775" fill="#E1E1E1"/>
<path d="M242.078 104.568C240.03 102.133 237.187 100.66 235.209 100.093C233.357 99.5619 230.548 99.0724 227.682 99.7564C225.902 100.181 224.341 101.011 223.043 102.224C221.504 103.66 220.326 105.644 219.539 108.122C219.421 108.494 219.458 108.889 219.642 109.233C219.828 109.579 220.138 109.83 220.516 109.938L225.372 111.33C226.057 111.527 226.792 111.185 227.083 110.534C227.735 109.073 229.374 106.768 233.026 107.748C235.809 108.495 236.375 110.826 236.49 111.794C236.677 113.369 236.049 114.993 234.811 116.139C232.908 117.899 230.437 117.543 229.134 117.175C227.635 116.751 226.068 117.617 225.642 119.105L224.143 124.331C223.924 125.094 224.367 125.893 225.13 126.111L229.861 127.468C230.625 127.687 231.423 127.244 231.642 126.481L231.957 125.383C231.965 125.357 231.988 125.339 232.016 125.337C233.195 125.268 235.533 124.956 237.938 123.632C241.008 121.942 243.098 119.224 244.15 115.553C245.657 110.3 243.855 106.68 242.078 104.568Z" fill="#ECECEC"/>
<path d="M227.354 128.173L226.94 128.054C224.962 127.487 222.89 128.635 222.323 130.614C221.755 132.592 222.904 134.664 224.882 135.231L225.296 135.35C227.275 135.917 229.346 134.769 229.914 132.79C230.481 130.812 229.333 128.74 227.354 128.173Z" fill="#ECECEC"/>
<path d="M81.8395 147.324C79.481 145.559 76.6085 144.828 74.7065 144.733C72.925 144.643 70.2895 144.792 67.8495 146.011C66.3345 146.768 65.1015 147.844 64.185 149.21C63.1 150.828 62.4545 152.865 62.266 155.265C62.2375 155.625 62.3535 155.973 62.5925 156.244C62.8325 156.518 63.165 156.678 63.528 156.696L68.1985 156.931C68.8575 156.965 69.449 156.501 69.574 155.854C69.855 154.4 70.848 151.977 74.3465 152.093C77.0125 152.182 78.013 154.164 78.3205 155.013C78.82 156.394 78.595 157.99 77.719 159.283C76.373 161.27 74.071 161.468 72.8185 161.41C71.378 161.343 70.148 162.453 70.076 163.884L69.823 168.91C69.786 169.644 70.353 170.272 71.087 170.309L75.6375 170.538C76.3715 170.574 76.999 170.007 77.036 169.273L77.089 168.217C77.09 168.192 77.107 168.171 77.132 168.164C78.181 167.854 80.223 167.08 82.113 165.381C84.5255 163.213 85.839 160.323 86.0165 156.792C86.271 151.74 83.8855 148.855 81.8395 147.324Z" fill="#ECECEC"/>
<path d="M73.525 171.699L73.127 171.679C71.2235 171.583 69.5975 173.054 69.5015 174.957C69.406 176.86 70.8765 178.487 72.7795 178.582L73.1775 178.602C75.081 178.698 76.707 177.228 76.803 175.325C76.8985 173.421 75.428 171.795 73.525 171.699Z" fill="#ECECEC"/>
<path d="M57.5542 236.339H61.8747C64.4172 227.279 65.6407 217.197 63.9757 208.769C60.0757 217.218 57.8907 226.736 57.5542 236.339Z" fill="#ECECEC"/>
<path d="M56.7359 194.296C51.4239 205.804 49.2824 219.292 50.6839 232.282C50.7319 232.383 50.7809 232.486 50.8294 232.588C55.6334 221.61 59.1034 206.281 56.7359 194.296Z" fill="#ECECEC"/>
<path d="M45.3375 178.101C41.444 189.965 40.7235 203.23 43.26 215.59C43.4165 215.965 43.577 216.348 43.74 216.735C47.255 205.145 48.9725 189.552 45.3375 178.101Z" fill="#ECECEC"/>
<path d="M37.9094 202.375C37.8674 202.243 37.8494 202.174 37.8564 202.171C37.8634 202.168 37.8949 202.231 37.9499 202.358C38.0129 202.51 38.0904 202.696 38.1844 202.924C38.2604 203.116 38.3494 203.342 38.4449 203.585C38.6169 203.862 38.7824 204.144 38.9579 204.417C38.6034 192.039 35.2364 176.535 28.1289 167.395C28.2939 180.136 31.8594 192.776 38.1669 203.134C38.1469 203.076 38.1239 203.012 38.1049 202.958C38.0264 202.724 37.9619 202.532 37.9094 202.375Z" fill="#ECECEC"/>
<path d="M40.89 210.507C40.8535 210.414 40.818 210.322 40.7825 210.229C32.3615 201.749 19.738 193.419 8.37598 192.317C17.1875 201.63 28.7445 208.091 40.89 210.507Z" fill="#ECECEC"/>
<path d="M46.7841 223.574C46.7376 223.534 46.6886 223.494 46.6416 223.454C46.6576 223.49 46.6741 223.527 46.6901 223.563C46.7216 223.566 46.7526 223.571 46.7841 223.574Z" fill="#ECECEC"/>
<path d="M11.2124 207.87C21.0304 216.593 33.4689 222.137 46.2399 223.509C46.1484 223.3 46.0609 223.096 45.9709 222.889C36.5554 215.066 22.9874 207.899 11.2124 207.87Z" fill="#ECECEC"/>
<path d="M18.3066 223.574C24.7371 229.287 32.2941 233.63 40.3296 236.339H50.2116C41.0326 229.446 28.9386 223.6 18.3066 223.574Z" fill="#ECECEC"/>
<path d="M41.98 213.289C43.095 216.106 44.435 219.351 45.9705 222.889C46.0605 223.096 46.148 223.3 46.2395 223.509C47.9755 227.487 49.959 231.824 52.1525 236.339H52.633C52.015 235.073 51.414 233.821 50.829 232.588C50.7805 232.486 50.7315 232.383 50.6835 232.281C49.2465 229.243 47.9115 226.317 46.69 223.563C46.674 223.527 46.6575 223.49 46.642 223.454C45.586 221.071 44.618 218.821 43.74 216.735C43.577 216.348 43.4165 215.965 43.26 215.59C42.91 214.75 42.574 213.936 42.2565 213.159C40.8745 209.776 39.7825 207.026 39.048 205.115C38.815 204.523 38.616 204.018 38.445 203.585C38.3495 203.342 38.2605 203.116 38.1845 202.923C38.0905 202.696 38.013 202.51 37.95 202.357C37.895 202.231 37.8635 202.168 37.8565 202.17C37.8495 202.173 37.8675 202.243 37.9095 202.375C37.962 202.532 38.0265 202.723 38.105 202.958C38.124 203.011 38.147 203.076 38.167 203.133C38.354 203.66 38.5945 204.338 38.8945 205.183C39.3615 206.496 40 208.205 40.7825 210.229C40.818 210.321 40.8535 210.413 40.89 210.507C41.2285 211.381 41.59 212.305 41.98 213.289Z" fill="#E1E1E1"/>
</g>
<mask id="mask1_107_828" style="mask-type:luminance" maskUnits="userSpaceOnUse" x="0" y="0" width="250" height="250">
<path d="M0 1.52588e-05H250V250H0V1.52588e-05Z" fill="white"/>
</mask>
<g mask="url(#mask1_107_828)">
<path d="M36.6576 49.715L37.5321 47.6955C44.9041 30.6725 60.8391 18.8295 79.1711 17.478C81.5276 17.3045 83.8976 17.3005 86.2601 17.476C103.271 18.7395 119.368 29.257 127.53 44.44C132.33 53.3695 134.8 64.0715 142.48 70.627C152.474 79.1585 167.212 77.4415 180.078 75.261C192.943 73.08 207.696 71.4 217.654 79.976C223.89 85.3465 226.801 93.804 227.492 102.051C229.323 123.884 216.886 145.343 199.004 157.619C181.122 169.895 158.626 173.87 137.021 172.524C106.755 170.64 76.5061 158.191 56.2076 135.328C35.9091 112.464 26.9286 78.7455 36.6576 49.715Z" fill="#F5F5F5"/>
<path d="M61.9325 199.151C61.9325 208.148 54.6395 215.441 45.643 215.441C36.6465 215.441 29.3535 208.148 29.3535 199.151C29.3535 190.155 36.6465 182.862 45.643 182.862C54.6395 182.862 61.9325 190.155 61.9325 199.151Z" fill="#F5F5F5"/>
</g>
<mask id="mask2_107_828" style="mask-type:luminance" maskUnits="userSpaceOnUse" x="0" y="0" width="250" height="250">
<path d="M0 1.52588e-05H250V250H0V1.52588e-05Z" fill="white"/>
</mask>
<g mask="url(#mask2_107_828)">
<path d="M235.193 236.143C235.193 236.219 185.854 236.28 125.005 236.28C64.1356 236.28 14.8076 236.219 14.8076 236.143C14.8076 236.068 64.1356 236.007 125.005 236.007C185.854 236.007 235.193 236.068 235.193 236.143Z" fill="#1A2E35"/>
</g>
<mask id="mask3_107_828" style="mask-type:luminance" maskUnits="userSpaceOnUse" x="0" y="0" width="250" height="250">
<path d="M0 1.52588e-05H250V250H0V1.52588e-05Z" fill="white"/>
</mask>
<g mask="url(#mask3_107_828)">
<path d="M51.0752 61.0725C51.0752 69.966 43.8657 77.1755 34.9722 77.1755C26.0787 77.1755 18.8687 69.966 18.8687 61.0725C18.8687 52.179 26.0787 44.9695 34.9722 44.9695C43.8657 44.9695 51.0752 52.179 51.0752 61.0725Z" fill="white"/>
<path d="M51.0751 61.0725C51.0751 61.0725 51.0636 60.984 51.0516 60.812C51.0401 60.633 51.0241 60.3785 51.0026 60.0475C50.9926 59.879 50.9816 59.691 50.9696 59.4845C50.9476 59.2785 50.9041 59.055 50.8676 58.812C50.8291 58.569 50.7876 58.3075 50.7431 58.028C50.7101 57.7465 50.6056 57.461 50.5331 57.1505C50.2496 55.9065 49.6681 54.4365 48.7501 52.8785C47.8246 51.3265 46.4896 49.7055 44.6716 48.3295C44.4431 48.1595 44.2121 47.9875 43.9781 47.8135C43.7346 47.654 43.4781 47.5075 43.2246 47.3515C42.9656 47.2045 42.7206 47.025 42.4431 46.8995C42.1686 46.768 41.8911 46.635 41.6111 46.5005C41.4706 46.434 41.3296 46.367 41.1876 46.3C41.0401 46.246 40.8921 46.1925 40.7436 46.138C40.4456 46.0295 40.1451 45.92 39.8416 45.8095C39.5356 45.7085 39.2151 45.643 38.8976 45.557C38.5776 45.4845 38.2626 45.3715 37.9281 45.3375C37.2661 45.2435 36.5966 45.107 35.9031 45.1035C35.5576 45.0915 35.2096 45.0575 34.8591 45.063C34.5086 45.0815 34.1551 45.0995 33.7996 45.118C33.6216 45.1305 33.4421 45.129 33.2646 45.1525L32.7306 45.235C32.3741 45.294 32.0116 45.3355 31.6531 45.41C30.9466 45.602 30.2146 45.7455 29.5186 46.0365C28.8006 46.266 28.1251 46.621 27.4306 46.954C27.0926 47.137 26.7686 47.351 26.4341 47.5495C26.2701 47.654 26.0951 47.7435 25.9396 47.862L25.4681 48.215C24.8176 48.6615 24.2486 49.22 23.6526 49.758C23.3826 50.055 23.1116 50.354 22.8391 50.654L22.6346 50.8795L22.4506 51.1225L22.0841 51.613L21.7161 52.1055L21.3941 52.632L21.0721 53.162L20.9106 53.428L20.7741 53.7075C20.5936 54.0825 20.4126 54.4585 20.2306 54.8365C20.0866 55.23 19.9416 55.625 19.7966 56.0215C19.2746 57.628 18.9936 59.334 18.9706 61.07C18.9936 62.807 19.2736 64.5135 19.7951 66.1205C19.9406 66.517 20.0851 66.9125 20.2296 67.306C20.4111 67.684 20.5926 68.0605 20.7731 68.435L20.9096 68.715L21.0711 68.981L21.3926 69.511L21.7151 70.038L22.0831 70.5305L22.4496 71.021L22.6331 71.2645L22.8381 71.49C23.1106 71.79 23.3816 72.089 23.6516 72.386C24.2476 72.9245 24.8166 73.483 25.4676 73.9295L25.9386 74.2825C26.0946 74.401 26.2696 74.4905 26.4336 74.5955C26.7681 74.794 27.0926 75.0075 27.4306 75.191C28.1246 75.524 28.8001 75.879 29.5186 76.1085C30.2146 76.3995 30.9466 76.543 31.6536 76.7355C32.0121 76.8095 32.3746 76.851 32.7311 76.91L33.2651 76.9925C33.4426 77.016 33.6221 77.0145 33.8001 77.027C34.1556 77.0455 34.5091 77.0635 34.8596 77.082C35.2106 77.087 35.5586 77.0535 35.9041 77.0415C36.5976 77.038 37.2671 76.901 37.9291 76.8075C38.2631 76.773 38.5786 76.66 38.8986 76.5875C39.2156 76.5015 39.5366 76.4365 39.8426 76.335C40.1461 76.2245 40.4466 76.115 40.7446 76.0065C40.8931 75.9525 41.0416 75.8985 41.1891 75.8445C41.3306 75.7775 41.4716 75.7105 41.6121 75.644C41.8921 75.5095 42.1696 75.3765 42.4441 75.245C42.7216 75.119 42.9666 74.94 43.2256 74.793C43.4791 74.6365 43.7361 74.4905 43.9791 74.331C44.2131 74.157 44.4441 73.9845 44.6726 73.8145C46.4906 72.4385 47.8256 70.8175 48.7506 69.266C49.6681 67.7075 50.2501 66.238 50.5331 64.994C50.6056 64.6835 50.7101 64.398 50.7436 64.116C50.7876 63.837 50.8291 63.5755 50.8676 63.3325C50.9041 63.0895 50.9481 62.8665 50.9696 62.66C50.9816 62.4535 50.9931 62.266 51.0026 62.0975C51.0241 61.7665 51.0401 61.512 51.0516 61.333C51.0636 61.161 51.0751 61.0725 51.0751 61.0725C51.0751 61.0725 51.0776 61.161 51.0726 61.3335C51.0656 61.513 51.0561 61.768 51.0436 62.1C51.0366 62.269 51.0286 62.4575 51.0201 62.665C51.0016 62.872 50.9606 63.0965 50.9276 63.341C50.8916 63.5855 50.8531 63.8485 50.8121 64.1295C50.7816 64.413 50.6796 64.7005 50.6101 65.0135C50.3371 66.266 49.7631 67.749 48.8481 69.324C47.9256 70.892 46.5886 72.533 44.7596 73.929C44.5296 74.1015 44.2971 74.276 44.0621 74.4525C43.8171 74.615 43.5586 74.763 43.3031 74.922C43.0426 75.0715 42.7956 75.2525 42.5156 75.381C42.2391 75.515 41.9596 75.65 41.6771 75.7865C41.5356 75.8545 41.3936 75.9225 41.2506 75.9905C41.1016 76.0455 40.9521 76.1005 40.8021 76.1555C40.5016 76.266 40.1981 76.3775 39.8921 76.49C39.5831 76.5935 39.2596 76.6605 38.9396 76.7485C38.6161 76.8225 38.2976 76.9375 37.9601 76.973C37.2911 77.07 36.6151 77.2095 35.9141 77.215C35.5651 77.228 35.2131 77.2625 34.8586 77.258C34.5041 77.2405 34.1466 77.223 33.7871 77.2055C33.6076 77.1935 33.4256 77.1945 33.2461 77.1715L32.7056 77.0895C32.3451 77.0305 31.9786 76.989 31.6156 76.9145C30.9006 76.722 30.1596 76.5775 29.4546 76.2845C28.7276 76.053 28.0431 75.6955 27.3406 75.3595C26.9981 75.174 26.6696 74.959 26.3306 74.758C26.1646 74.6525 25.9876 74.562 25.8296 74.4425L25.3521 74.086C24.6931 73.634 24.1156 73.07 23.5126 72.5255C23.2386 72.2245 22.9641 71.9225 22.6876 71.619L22.4806 71.391L22.2941 71.1445L21.9226 70.6485L21.5496 70.15L21.2231 69.617L20.8966 69.0805L20.7331 68.811L20.5946 68.5275C20.4116 68.1485 20.2281 67.767 20.0436 67.385C19.8976 66.986 19.7506 66.586 19.6031 66.1845C19.0741 64.557 18.7901 62.8285 18.7671 61.07C18.7901 59.312 19.0751 57.584 19.6046 55.9575C19.7516 55.556 19.8986 55.156 20.0451 54.7575C20.2291 54.375 20.4126 53.9945 20.5956 53.615L20.7346 53.3315L20.8981 53.0625L21.2241 52.526L21.5511 51.9935L21.9236 51.495L22.2951 50.999L22.4816 50.753L22.6886 50.525C22.9651 50.2215 23.2396 49.9195 23.5131 49.6185C24.1166 49.0745 24.6936 48.51 25.3526 48.059L25.8301 47.7025C25.9881 47.583 26.1651 47.4925 26.3311 47.3865C26.6701 47.186 26.9981 46.9705 27.3406 46.7855C28.0436 46.4495 28.7276 46.092 29.4546 45.86C30.1596 45.5675 30.9001 45.423 31.6156 45.2305C31.9781 45.156 32.3446 45.1145 32.7051 45.0555L33.2456 44.9735C33.4251 44.9505 33.6071 44.952 33.7866 44.9395C34.1461 44.922 34.5036 44.9045 34.8581 44.887C35.2126 44.882 35.5641 44.917 35.9131 44.93C36.6141 44.9355 37.2906 45.075 37.9591 45.172C38.2966 45.2075 38.6151 45.322 38.9386 45.3965C39.2586 45.484 39.5821 45.5515 39.8911 45.6545C40.1971 45.767 40.5006 45.8785 40.8011 45.989C40.9511 46.044 41.1006 46.099 41.2491 46.154C41.3921 46.222 41.5346 46.29 41.6761 46.358C41.9586 46.4945 42.2381 46.6295 42.5146 46.7635C42.7946 46.8915 43.0416 47.073 43.3021 47.2225C43.5576 47.381 43.8161 47.5295 44.0611 47.6915C44.2961 47.8685 44.5286 48.043 44.7586 48.2155C46.5876 49.611 47.9251 51.252 48.8476 52.82C49.7631 54.395 50.3366 55.878 50.6101 57.131C50.6796 57.444 50.7816 57.7315 50.8121 58.015C50.8531 58.296 50.8916 58.559 50.9276 58.8035C50.9606 59.048 51.0016 59.2725 51.0201 59.4795C51.0286 59.687 51.0366 59.8755 51.0436 60.045C51.0561 60.377 51.0656 60.632 51.0726 60.8115C51.0776 60.984 51.0751 61.0725 51.0751 61.0725Z" fill="#1A2E35"/>
<path d="M29.2432 58.3123H32.3027C32.3027 58.3123 32.3027 55.7433 34.9722 55.6973C36.3587 55.6738 37.0772 56.5818 37.3692 57.2778C37.7087 58.0853 37.6057 59.0063 37.1517 59.7553C36.6327 60.6108 35.4957 61.3883 33.4337 61.0253V65.5148H36.4587V63.8828C36.4587 63.8828 40.7017 62.7858 40.7017 58.1103C40.7017 53.6363 36.6897 52.5973 34.9722 52.5973C33.6592 52.5973 29.1857 52.9148 29.2432 58.3123Z" fill="#6F15F2"/>
<path d="M36.4953 69.5475H33.4253V66.68H36.4953V69.5475Z" fill="#6F15F2"/>
<path d="M51.8052 76.1395C51.8052 77.497 50.7047 78.598 49.3467 78.598C47.9892 78.598 46.8882 77.497 46.8882 76.1395C46.8882 74.782 47.9892 73.681 49.3467 73.681C50.7047 73.681 51.8052 74.782 51.8052 76.1395Z" fill="white"/>
<path d="M51.8051 76.1395C51.7836 76.1405 51.7911 75.9205 51.6901 75.549C51.5896 75.1845 51.3401 74.6515 50.7906 74.2425C50.2596 73.8325 49.3856 73.6035 48.5411 73.9185C48.1251 74.0695 47.7286 74.3535 47.4471 74.7455C47.1576 75.132 46.9951 75.628 46.9901 76.139C46.9946 76.6505 47.1576 77.1465 47.4471 77.5335C47.7286 77.9255 48.1251 78.2095 48.5411 78.3605C49.3861 78.6755 50.2596 78.4465 50.7906 78.0365C51.3401 77.627 51.5896 77.0945 51.6901 76.73C51.7911 76.3585 51.7836 76.1385 51.8051 76.1395C51.8121 76.1395 51.8161 76.1935 51.8176 76.2975C51.8211 76.401 51.8091 76.5555 51.7666 76.7495C51.6871 77.131 51.4486 77.7015 50.8781 78.1505C50.3266 78.6005 49.3936 78.8665 48.4771 78.5365C48.0261 78.3785 47.5941 78.0745 47.2866 77.6515C46.9706 77.234 46.7911 76.694 46.7866 76.139C46.7916 75.584 46.9706 75.045 47.2866 74.6275C47.5946 74.204 48.0261 73.9005 48.4771 73.7425C49.3936 73.4125 50.3266 73.6785 50.8776 74.128C51.4486 74.5775 51.6866 75.1475 51.7666 75.5295C51.8091 75.7235 51.8211 75.878 51.8176 75.9815C51.8161 76.0855 51.8121 76.1395 51.8051 76.1395Z" fill="#1A2E35"/>
</g>
<mask id="mask4_107_828" style="mask-type:luminance" maskUnits="userSpaceOnUse" x="0" y="0" width="250" height="250">
<path d="M0 1.52588e-05H250V250H0V1.52588e-05Z" fill="white"/>
</mask>
<g mask="url(#mask4_107_828)">
<path d="M230.887 51.0721C230.887 60.4181 223.31 67.9946 213.964 67.9946C204.618 67.9946 197.042 60.4181 197.042 51.0721C197.042 41.7261 204.618 34.1496 213.964 34.1496C223.31 34.1496 230.887 41.7261 230.887 51.0721Z" fill="white"/>
<path d="M230.887 51.0721C230.887 51.0721 230.875 50.9791 230.862 50.7981C230.85 50.6101 230.833 50.3431 230.811 49.9951C230.8 49.8176 230.789 49.6206 230.776 49.4036C230.753 49.1866 230.707 48.9521 230.669 48.6966C230.628 48.4411 230.585 48.1666 230.538 47.8731C230.503 47.5771 230.393 47.2766 230.317 46.9506C230.019 45.6431 229.408 44.0986 228.443 42.4611C227.471 40.8306 226.068 39.1271 224.157 37.6806C223.917 37.5021 223.674 37.3211 223.429 37.1381C223.173 36.9706 222.903 36.8171 222.637 36.6526C222.365 36.4981 222.107 36.3101 221.815 36.1781C221.527 36.0396 221.235 35.8996 220.941 35.7586C220.794 35.6886 220.645 35.6186 220.496 35.5481C220.341 35.4916 220.186 35.4346 220.029 35.3776C219.716 35.2641 219.401 35.1486 219.082 35.0326C218.76 34.9261 218.423 34.8576 218.09 34.7671C217.753 34.6911 217.422 34.5726 217.071 34.5366C216.375 34.4381 215.672 34.2946 214.943 34.2901C214.58 34.2781 214.214 34.2426 213.846 34.2481C213.477 34.2671 213.106 34.2866 212.732 34.3056C212.545 34.3186 212.357 34.3176 212.17 34.3421L211.609 34.4286C211.234 34.4906 210.853 34.5346 210.477 34.6126C209.734 34.8146 208.965 34.9651 208.233 35.2706C207.479 35.5126 206.769 35.8851 206.039 36.2351C205.684 36.4276 205.344 36.6521 204.992 36.8606C204.82 36.9711 204.636 37.0651 204.472 37.1891L203.977 37.5601C203.293 38.0296 202.695 38.6166 202.069 39.1816C201.785 39.4941 201.5 39.8081 201.214 40.1236L200.999 40.3601L200.806 40.6161L200.421 41.1311L200.034 41.6486L199.695 42.2021L199.357 42.7591L199.188 43.0386L199.044 43.3326C198.854 43.7261 198.664 44.1216 198.473 44.5186C198.321 44.9321 198.169 45.3476 198.016 45.7641C197.468 47.4521 197.173 49.2451 197.149 51.0696C197.173 52.8946 197.467 54.6881 198.015 56.3771C198.168 56.7936 198.32 57.2091 198.471 57.6231C198.663 58.0201 198.853 58.4156 199.043 58.8091L199.186 59.1036L199.356 59.3831L199.694 59.9401L200.033 60.4936L200.42 61.0116L200.805 61.5266L200.998 61.7826L201.213 62.0196C201.499 62.3351 201.784 62.6491 202.068 62.9616C202.694 63.5271 203.292 64.1141 203.976 64.5836L204.471 64.9546C204.635 65.0791 204.819 65.1726 204.991 65.2831C205.343 65.4916 205.684 65.7161 206.039 65.9091C206.769 66.2591 207.478 66.6316 208.233 66.8736C208.965 67.1791 209.734 67.3296 210.477 67.5316C210.854 67.6096 211.235 67.6536 211.609 67.7156L212.17 67.8021C212.357 67.8266 212.546 67.8256 212.733 67.8386C213.107 67.8576 213.478 67.8771 213.846 67.8961C214.215 67.9016 214.581 67.8661 214.944 67.8536C215.673 67.8496 216.376 67.7061 217.072 67.6076C217.423 67.5716 217.754 67.4531 218.091 67.3766C218.424 67.2861 218.761 67.2176 219.083 67.1111C219.402 66.9951 219.717 66.8801 220.03 66.7661C220.187 66.7091 220.342 66.6521 220.497 66.5961C220.646 66.5251 220.795 66.4551 220.942 66.3851C221.236 66.2436 221.528 66.1041 221.816 65.9656C222.108 65.8331 222.366 65.6456 222.638 65.4906C222.904 65.3266 223.174 65.1731 223.43 65.0051C223.675 64.8221 223.918 64.6411 224.158 64.4626C226.069 63.0166 227.472 61.3126 228.444 59.6821C229.408 58.0446 230.02 56.5001 230.317 55.1931C230.393 54.8671 230.503 54.5666 230.538 54.2706C230.585 53.9771 230.628 53.7026 230.669 53.4471C230.707 53.1916 230.753 52.9571 230.776 52.7406C230.789 52.5231 230.8 52.3261 230.811 52.1491C230.833 51.8011 230.85 51.5341 230.862 51.3461C230.875 51.1651 230.887 51.0721 230.887 51.0721C230.887 51.0721 230.889 51.1651 230.884 51.3461C230.877 51.5351 230.867 51.8031 230.854 52.1516C230.846 52.3296 230.838 52.5276 230.829 52.7456C230.81 52.9631 230.767 53.1991 230.732 53.4561C230.694 53.7131 230.654 53.9891 230.61 54.2846C230.578 54.5826 230.471 54.8851 230.398 55.2136C230.111 56.5301 229.508 58.0886 228.547 59.7436C227.577 61.3911 226.172 63.1156 224.25 64.5826C224.008 64.7641 223.764 64.9476 223.517 65.1331C223.259 65.3036 222.988 65.4596 222.719 65.6261C222.446 65.7831 222.186 65.9736 221.892 66.1086C221.601 66.2491 221.307 66.3916 221.011 66.5351C220.862 66.6061 220.712 66.6776 220.562 66.7491C220.406 66.8071 220.249 66.8646 220.091 66.9226C219.775 67.0386 219.457 67.1561 219.135 67.2741C218.81 67.3826 218.47 67.4531 218.133 67.5456C217.794 67.6236 217.459 67.7441 217.105 67.7816C216.402 67.8836 215.691 68.0301 214.954 68.0361C214.587 68.0496 214.218 68.0861 213.845 68.0811C213.473 68.0631 213.097 68.0446 212.719 68.0256C212.53 68.0131 212.339 68.0146 212.15 67.9901L211.583 67.9041C211.204 67.8421 210.818 67.7986 210.437 67.7201C209.686 67.5176 208.907 67.3661 208.166 67.0586C207.402 66.8151 206.683 66.4391 205.944 66.0856C205.585 65.8916 205.239 65.6651 204.883 65.4541C204.709 65.3426 204.523 65.2476 204.357 65.1221L203.855 64.7476C203.162 64.2731 202.556 63.6801 201.922 63.1076C201.634 62.7916 201.345 62.4741 201.055 62.1551L200.837 61.9156L200.641 61.6566L200.251 61.1351L199.859 60.6116L199.516 60.0511L199.173 59.4876L199.001 59.2046L198.855 58.9066C198.663 58.5076 198.47 58.1076 198.276 57.7056C198.123 57.2866 197.968 56.8661 197.814 56.4441C197.258 54.7341 196.959 52.9176 196.935 51.0696C196.959 49.2221 197.259 47.4061 197.815 45.6971C197.97 45.2751 198.124 44.8546 198.278 44.4361C198.471 44.0341 198.664 43.6336 198.856 43.2351L199.002 42.9376L199.174 42.6546L199.517 42.0911L199.86 41.5311L200.252 41.0071L200.642 40.4861L200.838 40.2276L201.056 39.9876C201.346 39.6691 201.635 39.3516 201.923 39.0356C202.557 38.4636 203.163 37.8706 203.855 37.3961L204.357 37.0216C204.523 36.8961 204.709 36.8011 204.884 36.6896C205.24 36.4791 205.585 36.2526 205.945 36.0581C206.683 35.7046 207.402 35.3291 208.166 35.0856C208.907 34.7781 209.685 34.6266 210.437 34.4241C210.818 34.3461 211.203 34.3021 211.582 34.2401L212.15 34.1541C212.339 34.1296 212.53 34.1311 212.718 34.1186C213.096 34.0996 213.472 34.0811 213.844 34.0631C214.217 34.0581 214.587 34.0941 214.953 34.1081C215.69 34.1141 216.401 34.2606 217.104 34.3626C217.458 34.4001 217.793 34.5201 218.133 34.5981C218.469 34.6906 218.809 34.7611 219.134 34.8696C219.455 34.9876 219.774 35.1051 220.09 35.2211C220.248 35.2791 220.405 35.3371 220.561 35.3946C220.711 35.4661 220.861 35.5376 221.009 35.6086C221.306 35.7521 221.6 35.8946 221.891 36.0351C222.185 36.1696 222.445 36.3601 222.718 36.5176C222.987 36.6841 223.258 36.8401 223.516 37.0106C223.763 37.1961 224.007 37.3796 224.249 37.5606C226.171 39.0276 227.577 40.7521 228.546 42.3996C229.508 44.0546 230.111 45.6136 230.398 46.9301C230.471 47.2586 230.578 47.5611 230.61 47.8591C230.654 48.1546 230.694 48.4306 230.732 48.6876C230.766 48.9446 230.809 49.1806 230.829 49.3981C230.838 49.6161 230.846 49.8141 230.854 49.9921C230.867 50.3411 230.877 50.6091 230.884 50.7981C230.889 50.9791 230.887 51.0721 230.887 51.0721Z" fill="#1A2E35"/>
<path d="M207.944 48.1715H211.159C211.159 48.1715 211.159 45.472 213.964 45.4235C215.421 45.3985 216.176 46.353 216.483 47.084C216.84 47.933 216.732 48.9005 216.254 49.688C215.709 50.587 214.514 51.4045 212.347 51.0225V55.7405H215.527V54.0255C215.527 54.0255 219.985 52.8725 219.985 47.959C219.985 43.258 215.769 42.166 213.964 42.166C212.584 42.166 207.883 42.4995 207.944 48.1715Z" fill="#6F15F2"/>
<path d="M215.565 59.9783H212.338V56.9653H215.565V59.9783Z" fill="#6F15F2"/>
<path d="M198.218 65.6539C198.218 67.0809 197.062 68.2374 195.635 68.2374C194.208 68.2374 193.051 67.0809 193.051 65.6539C193.051 64.2269 194.208 63.0704 195.635 63.0704C197.062 63.0704 198.218 64.2269 198.218 65.6539Z" fill="white"/>
<path d="M198.218 65.654C198.195 65.655 198.204 65.424 198.097 65.0335C197.992 64.65 197.73 64.0905 197.152 63.6605C196.594 63.2295 195.676 62.989 194.788 63.32C194.351 63.4785 193.934 63.777 193.639 64.189C193.334 64.5955 193.163 65.1165 193.158 65.6535C193.163 66.191 193.334 66.7125 193.638 67.119C193.934 67.531 194.351 67.8295 194.788 67.988C195.676 68.319 196.594 68.0785 197.152 67.6475C197.73 67.2175 197.992 66.6575 198.097 66.2745C198.204 65.884 198.195 65.653 198.218 65.654C198.226 65.654 198.23 65.7105 198.231 65.82C198.235 65.929 198.222 66.0915 198.178 66.295C198.094 66.696 197.844 67.2955 197.244 67.7675C196.665 68.24 195.684 68.52 194.721 68.173C194.247 68.007 193.793 67.6875 193.47 67.243C193.138 66.804 192.949 66.237 192.945 65.6535C192.949 65.0705 193.138 64.5035 193.47 64.065C193.793 63.62 194.247 63.301 194.721 63.135C195.684 62.788 196.664 63.068 197.244 63.5405C197.844 64.0125 198.094 64.6115 198.178 65.013C198.222 65.2165 198.235 65.379 198.231 65.488C198.23 65.597 198.226 65.654 198.218 65.654Z" fill="#1A2E35"/>
</g>
<mask id="mask5_107_828" style="mask-type:luminance" maskUnits="userSpaceOnUse" x="0" y="0" width="250" height="250">
<path d="M0 1.52588e-05H250V250H0V1.52588e-05Z" fill="white"/>
</mask>
<g mask="url(#mask5_107_828)">
<path d="M104.159 189.934C98.7624 176.414 94.7129 167.024 94.7129 167.024L45.3659 174.525C45.3659 174.525 36.4964 197.262 37.2639 207.58C38.0314 217.897 41.6434 236.065 41.6434 236.065H101.357C101.357 236.065 109.555 203.453 104.159 189.934Z" fill="#1A2E35"/>
<path d="M86.3487 77.1735C86.7357 73.273 87.3207 69.351 88.7482 65.7005C90.1757 62.05 92.5142 58.6585 95.8177 56.548L96.6657 57.3375C97.2512 55.661 98.8107 54.3655 100.566 54.0965C102.321 53.8275 104.196 54.597 105.257 56.021C107.15 55.511 109.321 56.284 110.465 57.8755C111.61 59.4675 111.651 61.7715 110.565 63.4035C112.338 63.628 113.904 65.024 114.33 66.7595C114.756 68.4955 114.015 70.4575 112.548 71.478C114.502 73.167 115.281 76.0915 114.425 78.529C113.569 80.9665 111.133 82.762 108.551 82.858C109.127 85.102 107.958 87.6705 105.888 88.71C103.817 89.7495 101.059 89.1525 99.6037 87.3495C99.7847 89.684 97.9177 91.894 95.6432 92.45C93.3687 93.0055 90.8907 92.0865 89.2307 90.4345C87.5712 88.783 86.6602 86.4935 86.3067 84.1785C85.9537 81.864 86.1172 79.5035 86.3487 77.1735Z" fill="#1A2E35"/>
<path d="M96.8507 59.8907C99.1202 60.6257 99.5847 62.4637 100.056 63.9952C101.071 67.2922 99.9297 72.1707 98.0852 75.0852C96.2397 77.9997 94.2172 79.4812 90.8032 79.9742C90.6922 74.7407 90.5812 69.5077 90.4702 64.2742L96.8507 59.8907Z" fill="#6F15F2"/>
<path d="M98.132 68.9038C99.682 66.8908 99.4625 63.7293 97.6495 61.9498C98.643 60.7013 98.2865 58.7758 97.2765 57.5408C96.2665 56.3053 94.7665 55.5968 93.318 54.9273C92.523 51.2748 88.423 48.7058 84.7895 49.5833C82.8965 46.8008 78.8635 46.3643 75.6325 47.3058C74.8435 47.5358 74.055 47.8328 73.233 47.8298C72.63 47.8273 72.0405 47.6623 71.443 47.5818C68.156 47.1398 64.893 49.4538 63.6115 52.5128C63.4065 53.0018 63.2385 53.5173 62.9135 53.9363C62.487 54.4863 61.8405 54.8098 61.289 55.2343C60.0975 56.1528 59.3415 57.6128 59.2785 59.1158C59.2245 60.3923 59.631 61.7473 59.0935 62.9063C58.824 63.4873 58.337 63.9568 58.1275 64.5618C57.5195 66.3153 59.4635 68.1083 59.1035 69.9288C59.03 70.3003 58.8625 70.6463 58.7595 71.0108C58.5485 71.7563 58.62 72.5778 58.9565 73.2753C59.216 73.8138 59.6345 74.3068 59.6695 74.9033C59.6965 75.3563 59.4945 75.7873 59.404 76.2313C59.182 77.3183 61.5275 81.5098 62.466 82.1008L90.5325 82.3518C92.657 81.9193 94.387 79.9943 94.591 77.8363C94.625 77.4773 94.6305 77.0878 94.853 76.8043C95.042 76.5623 95.3485 76.4513 95.619 76.3063C97.426 75.3358 97.644 72.8548 97.454 70.8123C97.427 70.5263 97.3975 70.2333 97.4695 69.9553C97.5745 69.5513 97.8775 69.2348 98.132 68.9038Z" fill="#1A2E35"/>
<path d="M90.0907 68.944C90.1737 63.977 87.0587 58.269 82.1242 55.84C79.0142 54.309 76.5872 54.299 74.9522 54.1085C71.2887 53.6815 68.3327 55.4965 68.3327 55.4965C66.7862 55.86 61.1167 61.051 60.8227 66.6835C60.4952 72.941 60.3427 80.594 61.1337 85.252C62.7242 94.618 69.9282 95.735 69.9282 95.735C69.9287 95.721 69.2572 111.305 69.2572 111.305L83.1022 122.651L87.3322 104.022L90.0907 68.944Z" fill="#FFC19D"/>
<path d="M69.9282 95.7352C69.9282 95.7352 76.2862 96.0762 82.4992 92.2507C82.4992 92.2507 79.2252 98.8997 69.8257 98.1222L69.9282 95.7352Z" fill="#FF9C6A"/>
<path d="M88.6754 77.8519C88.6694 77.1534 89.4594 75.4969 90.1484 75.3819C91.9879 75.0754 95.3109 75.1874 95.3919 79.8669C95.5024 86.2634 89.2234 84.8349 89.0434 84.8714C88.0234 85.0804 88.6954 80.2644 88.6754 77.8519Z" fill="#FFC19D"/>
<path d="M90.7674 82.5044C90.7954 82.4834 90.8804 82.5804 91.0699 82.6634C91.2549 82.7444 91.5719 82.7974 91.9034 82.6664C92.5749 82.4069 93.1254 81.3239 93.1364 80.1704C93.1424 79.5879 93.0109 79.0359 92.7969 78.5799C92.5934 78.1159 92.2854 77.7939 91.9439 77.7399C91.6039 77.6674 91.3669 77.8749 91.2914 78.0559C91.2084 78.2369 91.2519 78.3639 91.2179 78.3749C91.2004 78.3914 91.0789 78.2709 91.1259 78.0054C91.1499 77.8779 91.2224 77.7254 91.3709 77.5999C91.5219 77.4729 91.7464 77.4054 91.9839 77.4264C92.4779 77.4524 92.9294 77.8984 93.1649 78.3984C93.4274 78.8999 93.5894 79.5204 93.5824 80.1749C93.5634 81.4644 92.9249 82.6819 92.0044 82.9649C91.5569 83.0899 91.1789 82.9609 90.9824 82.8134C90.7814 82.6589 90.7454 82.5164 90.7674 82.5044Z" fill="#FF9C6A"/>
<path d="M59.4503 65.7355C59.6533 63.412 60.5793 61.209 61.7003 59.164C62.4763 57.7485 63.3688 56.3665 64.5898 55.311C65.6103 54.429 66.8253 53.8055 68.0443 53.2275C71.2488 51.7075 74.8233 50.418 78.2833 51.1975C80.1408 51.6165 81.8128 52.6035 83.4393 53.5925C84.6863 54.351 85.9383 55.128 86.9823 56.147C87.8988 57.0415 88.6353 58.104 89.2848 59.2075C90.8338 61.837 91.9273 64.7765 92.1368 67.821C92.3458 70.866 94.6498 73.558 92.8643 76.033C92.7263 76.225 89.5468 76.883 89.3273 76.9705C88.8108 77.176 88.2423 76.6155 88.2463 76.059C88.2503 75.503 88.6333 75.024 89.0453 74.65C88.2538 74.6235 87.7108 73.742 87.7608 72.9515C87.8108 72.161 88.2788 71.465 88.7488 70.8275C88.8098 70.7445 88.8738 70.656 88.8863 70.5535C88.9193 70.284 88.6138 70.118 88.3803 69.9795C87.2408 69.305 87.1138 67.4295 88.1518 66.608C86.6263 66.2545 85.6373 64.4195 86.1808 62.9505C86.2668 62.7185 86.3838 62.458 86.2728 62.237C86.1658 62.024 85.9018 61.9575 85.6738 61.89C83.9853 61.3895 82.8508 59.482 83.2173 57.7595C82.3293 57.806 81.4268 57.8515 80.5628 57.6415C79.6988 57.432 78.8633 56.9265 78.4683 56.13C77.9023 57.15 76.7903 57.845 75.6248 57.9075C74.4598 57.97 73.2803 57.398 72.6078 56.444C71.1183 56.5865 69.5938 56.3505 68.2168 55.7645C67.8788 57.1525 66.7843 58.3315 65.4243 58.771C65.1603 58.856 64.8568 58.939 64.7298 59.186C64.6488 59.343 64.6618 59.5295 64.6713 59.7055C64.7183 60.5985 64.1098 60.979 63.6173 61.726C63.1248 62.472 62.2663 63.5845 61.4063 63.338C61.5018 64.859 60.6883 65.9665 59.4038 66.7875L59.4503 65.7355Z" fill="#1A2E35"/>
<path d="M58.127 64.5617C58.127 64.5617 58.1885 64.2972 58.4655 63.8722C58.599 63.6582 58.7885 63.4087 58.9665 63.0897C59.1405 62.7702 59.2785 62.3652 59.314 61.8912C59.361 61.4187 59.318 60.8887 59.2725 60.3092C59.2265 59.7317 59.178 59.0872 59.3055 58.4097C59.427 57.7347 59.6935 57.0337 60.129 56.3867C60.346 56.0637 60.6055 55.7547 60.9075 55.4742C61.2075 55.1907 61.5595 54.9522 61.9115 54.7137C62.261 54.4732 62.6145 54.2152 62.876 53.8667C63.1385 53.5182 63.2985 53.0902 63.4715 52.6572C63.819 51.7832 64.326 50.9267 65.0035 50.1702C65.677 49.4142 66.4965 48.7282 67.4655 48.2417C67.9415 47.9812 68.466 47.8052 69.0005 47.6492C69.5435 47.5267 70.1055 47.4307 70.68 47.4447C70.9665 47.4402 71.2545 47.4777 71.5425 47.5057C71.829 47.5477 72.1115 47.6052 72.395 47.6532C72.9605 47.7602 73.533 47.7722 74.1045 47.6402C74.676 47.5222 75.236 47.3112 75.826 47.1587C76.412 46.9922 77.0205 46.8927 77.636 46.8227C78.253 46.7542 78.881 46.7537 79.511 46.7892C80.141 46.8362 80.771 46.9472 81.3905 47.1187C82.6165 47.4817 83.812 48.1582 84.629 49.2162C84.709 49.3212 84.7894 49.4257 84.8689 49.5292L84.7664 49.4897C86.6974 49.0272 88.721 49.5317 90.284 50.5557C91.8575 51.5762 93.0284 53.1592 93.4074 54.9077L93.3564 54.8442C94.1329 55.2037 94.9004 55.5652 95.6089 56.0087C96.3154 56.4507 96.9644 56.9802 97.4534 57.6307C97.9374 58.2842 98.234 59.0537 98.3045 59.8317C98.3779 60.6067 98.1869 61.4087 97.7114 61.9997L97.7049 61.8927C98.6259 62.8007 99.0969 64.0137 99.2054 65.1647C99.3149 66.3207 99.0819 67.4497 98.5669 68.3492C98.4499 68.5807 98.2904 68.7817 98.1474 68.9857C97.993 69.1812 97.8354 69.3637 97.7114 69.5602C97.5874 69.7567 97.5054 69.9682 97.4894 70.1897C97.4694 70.4107 97.4949 70.6332 97.513 70.8537C97.5874 71.7357 97.575 72.5547 97.465 73.2822C97.354 74.0082 97.1489 74.6452 96.8509 75.1352C96.5599 75.6297 96.1934 75.9687 95.8649 76.1817C95.5364 76.4022 95.2449 76.4892 95.0835 76.6092C94.9165 76.7192 94.8579 76.8092 94.8524 76.8042C94.8524 76.8042 94.9035 76.7082 95.0695 76.5887C95.2299 76.4602 95.5214 76.3642 95.8379 76.1412C96.1574 75.9252 96.5104 75.5882 96.7899 75.0997C97.0759 74.6152 97.2705 73.9867 97.374 73.2687C97.4759 72.5497 97.4819 71.7382 97.4015 70.8637C97.3825 70.6452 97.3534 70.4172 97.3729 70.1797C97.3884 69.9412 97.4789 69.7027 97.6089 69.4967C97.7379 69.2882 97.8979 69.1017 98.0485 68.9087C98.187 68.7077 98.341 68.5122 98.4529 68.2857C98.9499 67.4082 99.1714 66.3057 99.0599 65.1792C98.9499 64.0572 98.4854 62.8802 97.5929 62.0072L97.541 61.9562L97.5864 61.8997C98.0299 61.3442 98.2099 60.5887 98.138 59.8467C98.069 59.1027 97.7809 58.3607 97.3144 57.7347C96.8419 57.1092 96.209 56.5927 95.514 56.1607C94.8169 55.7262 94.056 55.3687 93.2794 55.0107L93.2379 54.9917L93.228 54.9467C92.858 53.2522 91.7169 51.7102 90.18 50.7152C88.6535 49.7167 86.681 49.2287 84.8114 49.6772L84.7509 49.6917L84.709 49.6377C84.6325 49.5377 84.555 49.4367 84.4774 49.3357C83.69 48.3152 82.5339 47.6582 81.3365 47.3027C80.7319 47.1352 80.1155 47.0257 79.497 46.9792C78.879 46.9442 78.2619 46.9437 77.6555 47.0107C77.0499 47.0787 76.451 47.1757 75.8745 47.3392C75.295 47.4872 74.731 47.6997 74.142 47.8202C73.848 47.8817 73.5485 47.9202 73.2475 47.9207C72.9465 47.9207 72.6515 47.8807 72.3645 47.8317C72.077 47.7827 71.796 47.7247 71.5165 47.6832C71.236 47.6562 70.957 47.6187 70.6785 47.6222C70.1205 47.6072 69.5735 47.7002 69.0435 47.8177C68.522 47.9692 68.009 48.1387 67.543 48.3927C66.5935 48.8657 65.787 49.5367 65.1235 50.2762C64.4555 51.0172 63.955 51.8537 63.6095 52.7127C63.4355 53.1422 63.27 53.5827 62.99 53.9522C62.7095 54.3222 62.341 54.5857 61.9885 54.8262C61.632 55.0647 61.289 55.2952 60.9955 55.5697C60.7 55.8412 60.445 56.1412 60.2305 56.4557C59.801 57.0852 59.5355 57.7692 59.412 58.4292C59.2815 59.0902 59.3235 59.7237 59.364 60.3027C59.404 60.8817 59.4425 61.4177 59.389 61.8987C59.3465 62.3797 59.199 62.7952 59.0165 63.1177C58.83 63.4392 58.636 63.6837 58.498 63.8937C58.356 64.1007 58.2645 64.2687 58.209 64.3847C58.153 64.5007 58.132 64.5637 58.127 64.5617Z" fill="#375A64"/>
<path d="M81.7746 48.2021C81.7651 48.2166 81.6051 48.1066 81.2926 47.9566C80.9816 47.8091 80.5076 47.6256 79.8946 47.5606C79.2871 47.4931 78.5336 47.5501 77.7946 47.8836C77.0611 48.2156 76.3491 48.8166 75.8946 49.6321C75.7646 49.8661 75.6531 50.1156 75.5826 50.3586C75.5156 50.6006 75.5071 50.8576 75.6346 51.0321L75.7926 51.2481L75.5336 51.1776C74.8226 50.9826 74.0936 51.1236 73.5576 51.4286C73.0116 51.7326 72.6686 52.2016 72.4816 52.6211C72.2926 53.0451 72.2491 53.4226 72.2401 53.6771C72.2336 53.9331 72.2551 54.0736 72.2406 54.0756C72.2351 54.0771 72.2246 54.0426 72.2106 53.9756C72.1951 53.9091 72.1816 53.8086 72.1751 53.6776C72.1641 53.4171 72.1891 53.0236 72.3711 52.5741C72.5501 52.1301 72.9006 51.6226 73.4761 51.2876C74.0411 50.9536 74.8146 50.7916 75.5836 50.9966L75.4826 51.1421C75.3031 50.8931 75.3261 50.5721 75.3976 50.3086C75.4751 50.0386 75.5886 49.7866 75.7266 49.5381C76.2031 48.6831 76.9516 48.0591 77.7226 47.7216C78.5001 47.3811 79.2866 47.3376 79.9111 47.4256C80.5421 47.5106 81.0206 47.7191 81.3271 47.8896C81.4806 47.9761 81.5951 48.0516 81.6681 48.1086C81.7416 48.1646 81.7786 48.1966 81.7746 48.2021Z" fill="#375A64"/>
<path d="M92.2122 55.464C92.2197 55.4725 92.1447 55.5575 91.9907 55.6945C91.8352 55.83 91.5997 56.0195 91.2707 56.203C90.9427 56.383 90.5127 56.562 89.9977 56.596C89.4917 56.6305 88.8887 56.5195 88.4057 56.128L88.5467 56.1055C88.4862 56.1915 88.4242 56.28 88.3617 56.3695C88.2937 56.4555 88.2182 56.5375 88.1452 56.623C87.6782 57.1135 87.1087 57.451 86.5547 57.6305C86.0012 57.816 85.4697 57.8645 85.0317 57.8335C84.5927 57.803 84.2497 57.698 84.0222 57.612C83.7982 57.5145 83.6817 57.4465 83.6872 57.436C83.7002 57.396 84.1847 57.6675 85.0382 57.6975C85.4612 57.7105 85.9702 57.649 86.4967 57.4625C87.0237 57.282 87.5622 56.9555 88.0047 56.4915C88.0732 56.4105 88.1452 56.333 88.2092 56.252C88.2692 56.1675 88.3282 56.0845 88.3852 56.0035L88.4477 55.9155L88.5272 55.9805C88.9582 56.335 89.5122 56.449 89.9882 56.4265C90.4702 56.4055 90.8862 56.25 91.2117 56.09C91.8617 55.755 92.1912 55.4365 92.2122 55.464Z" fill="#375A64"/>
<path d="M95.6398 61.3701C95.6463 61.3716 95.6413 61.4116 95.6253 61.4881C95.6038 61.5621 95.5678 61.6736 95.4853 61.7986C95.3298 62.0506 94.9828 62.3581 94.4598 62.4921C93.9343 62.6331 93.2818 62.5326 92.6313 62.3081C92.3048 62.1941 91.9658 62.0801 91.6183 61.9176C91.2803 61.7551 90.9118 61.5206 90.7283 61.1196C90.7143 61.0846 90.7003 61.0496 90.6878 61.0171L90.8388 61.0616C90.2268 61.5481 89.5948 61.9721 88.9503 62.2161C88.3103 62.4691 87.6648 62.5136 87.1553 62.4156C86.6413 62.3231 86.2628 62.1081 86.0443 61.9211C85.9333 61.8291 85.8568 61.7461 85.8113 61.6861C85.7648 61.6261 85.7433 61.5931 85.7483 61.5891C85.7618 61.5771 85.8628 61.6996 86.0898 61.8621C86.3138 62.0251 86.6843 62.2106 87.1773 62.2821C87.6683 62.3586 88.2738 62.3036 88.8863 62.0516C89.5018 61.8081 90.1133 61.3926 90.7193 60.9106L90.8203 60.8301L90.8703 60.9556C90.8808 60.9821 90.8928 61.0116 90.9043 61.0406C91.0543 61.3726 91.3773 61.5906 91.7003 61.7476C92.0273 61.9036 92.3703 62.0241 92.6883 62.1401C93.3238 62.3691 93.9378 62.4736 94.4283 62.3596C94.9213 62.2506 95.2588 61.9801 95.4238 61.7556C95.5948 61.5296 95.6203 61.3636 95.6398 61.3701Z" fill="#375A64"/>
<path d="M74.9844 74.3601C74.9424 74.9841 75.4359 75.5341 76.0864 75.5901C76.7359 75.6461 77.2979 75.1871 77.3404 74.5631C77.3824 73.9391 76.8884 73.3881 76.2394 73.3321C75.5884 73.2761 75.0264 73.7361 74.9844 74.3601Z" fill="#1A2E35"/>
<path d="M63.5196 74.0461C63.4771 74.6701 63.9711 75.2201 64.6216 75.2761C65.2711 75.3321 65.8331 74.8731 65.8756 74.2491C65.9176 73.6251 65.4236 73.0741 64.7746 73.0181C64.1236 72.9621 63.5616 73.4221 63.5196 74.0461Z" fill="#1A2E35"/>
<path d="M63.0528 70.1208C63.1943 70.2798 64.1118 69.6453 65.3848 69.6898C66.6568 69.7153 67.5703 70.4008 67.7128 70.2493C67.7833 70.1823 67.6423 69.8988 67.2453 69.5898C66.8548 69.2823 66.1808 68.9733 65.3878 68.9508C64.5948 68.9298 63.9183 69.2008 63.5253 69.4868C63.1243 69.7748 62.9828 70.0493 63.0528 70.1208Z" fill="#1A2E35"/>
<path d="M75.7116 70.7559C75.8691 70.8994 76.7176 70.1744 77.9876 70.0879C79.2551 69.9829 80.2341 70.5704 80.3606 70.4049C80.4231 70.3314 80.2561 70.0639 79.8276 69.7974C79.4071 69.5309 78.7056 69.2934 77.9146 69.3524C77.1236 69.4129 76.4786 69.7514 76.1166 70.0769C75.7486 70.4044 75.6351 70.6924 75.7116 70.7559Z" fill="#1A2E35"/>
<path d="M70.9644 80.3116C70.9729 80.2396 70.1859 80.0776 68.9089 79.8721C68.5854 79.8281 68.2794 79.7536 68.2319 79.5301C68.1629 79.2926 68.3099 78.9471 68.4799 78.5736C68.8109 77.7971 69.1569 76.9826 69.5209 76.1296C70.9689 72.6486 72.0284 69.7821 71.8879 69.7251C71.7469 69.6681 70.4589 72.4431 69.0104 75.9241C68.6614 76.7826 68.3274 77.6011 68.0099 78.3841C67.8749 78.7496 67.6499 79.1621 67.8004 79.6546C67.8799 79.9006 68.1129 80.0841 68.3194 80.1471C68.5259 80.2171 68.7084 80.2266 68.8689 80.2411C70.1569 80.3521 70.9574 80.3841 70.9644 80.3116Z" fill="#1A2E35"/>
<path d="M72.9361 82.2039C73.4131 82.2709 73.8896 82.5174 74.1681 82.9169C74.4461 83.3154 74.6471 84.2494 74.3706 84.6129C74.1351 84.9224 73.0836 84.9214 72.3606 84.8304C72.0256 84.7884 71.7461 84.5559 71.6351 84.2374L71.3496 83.4154C71.1871 82.9479 71.4306 82.4229 71.9031 82.2744C72.2241 82.1739 72.5821 82.1544 72.9361 82.2039Z" fill="#FF9C6A"/>
<path d="M75.1325 66.1079C75.322 66.4239 76.539 66.0194 78.0395 65.9104C79.539 65.7714 80.805 65.9704 80.94 65.6279C80.9985 65.4649 80.73 65.1854 80.188 64.9494C79.65 64.7134 78.8325 64.5484 77.9335 64.6219C77.034 64.6969 76.255 64.9939 75.763 65.3149C75.267 65.6374 75.048 65.9569 75.1325 66.1079Z" fill="#1A2E35"/>
<path d="M63.3662 68.0304C63.6332 68.3124 64.6407 67.9854 65.8617 67.9379C67.0812 67.8539 68.1227 68.0714 68.3527 67.7629C68.4532 67.6129 68.2822 67.3279 67.8232 67.0664C67.3702 66.8054 66.6192 66.6029 65.7807 66.6469C64.9422 66.6929 64.2222 66.9744 63.8052 67.2819C63.3817 67.5909 63.2482 67.8924 63.3662 68.0304Z" fill="#1A2E35"/>
<path d="M107.233 120.895L95.2226 164.459L99.4356 176.946C83.5756 183.936 60.6496 186.157 42.5776 177.4C42.5776 177.4 48.7166 159.387 48.9251 155.881C49.1341 152.375 47.6251 131.893 49.2956 125.024C50.9661 118.154 55.7486 103.432 55.7486 103.432L69.8161 101.198C76.2661 104.663 80.3961 105.179 87.3321 101.164L100.436 104.022L107.233 120.895Z" fill="#375A64"/>
<path d="M55.962 103.408C55.962 103.408 48.4075 104.208 45.3655 110.421C42.3605 116.56 34.019 143.727 33.565 148.266C33.111 152.804 36.793 158.913 40.003 159.758L49.7365 150.054L57.8115 150.773L68.4445 101.164L55.962 103.408Z" fill="#375A64"/>
<mask id="mask6_107_828" style="mask-type:luminance" maskUnits="userSpaceOnUse" x="40" y="120" width="11" height="26">
<path d="M40.4731 120.096H50.258V145.709H40.4731V120.096Z" fill="white"/>
</mask>
<g mask="url(#mask6_107_828)">
<g opacity="0.300003">
<path d="M50.2577 120.096C47.9087 126.19 47.2447 132.923 48.3582 139.357C46.5852 138.695 44.8122 138.033 43.0397 137.371C44.4887 139.372 46.3922 141.042 48.5657 142.218C47.1312 141.804 45.6617 141.385 44.1722 141.482C42.6822 141.579 41.1432 142.297 40.4727 143.631C42.2117 143.313 43.9812 142.995 45.7362 143.2C47.4917 143.405 49.2632 144.215 50.2077 145.709C48.8967 140.05 48.3917 134.205 48.7132 128.405" fill="black"/>
</g>
</g>
<mask id="mask7_107_828" style="mask-type:luminance" maskUnits="userSpaceOnUse" x="47" y="157" width="41" height="11">
<path d="M47.5903 157.459H87.6961V167.024H47.5903V157.459Z" fill="white"/>
</mask>
<g mask="url(#mask7_107_828)">
<g opacity="0.300003">
<path d="M48.0516 157.458L87.6961 161.386C84.8386 161.326 82.6396 163.744 80.1656 165.175C75.5846 167.825 69.8791 167.084 64.6516 166.262C60.3201 165.58 55.9886 164.899 51.6571 164.218C50.5641 164.046 49.3996 163.84 48.5941 163.082C47.1501 161.723 47.5451 159.376 48.0516 157.458Z" fill="black"/>
</g>
</g>
<path d="M78.3288 154.199L84.9673 147.79C85.6118 147.167 86.4933 146.858 87.3853 146.942C89.2798 147.121 92.4913 147.454 93.1513 147.711C94.1008 148.08 94.9973 148.608 95.2613 149.083C95.5248 149.557 96.4218 152.406 96.4743 152.828C96.5003 153.033 96.4383 153.625 96.3683 154.178C96.2853 154.833 95.5653 155.219 94.9913 154.894C94.7333 154.748 94.4983 154.556 94.3643 154.305C93.9423 153.514 93.9953 153.197 93.9953 153.197C93.9953 153.197 94.2063 156.046 91.8853 156.098C91.8853 156.098 92.9543 158.525 89.9668 159.527C89.9668 159.527 90.0773 161.109 87.5793 161.32C85.0808 161.531 82.8123 161.32 82.8123 161.32C82.8123 161.32 78.2453 164.601 75.0278 164.812C71.8098 165.023 64.6053 163.617 64.6053 163.617L63.7358 150.347L78.3288 154.199Z" fill="#FFC19D"/>
<path d="M87.3238 150.133C87.3158 150.156 87.7213 150.327 88.3873 150.579C89.0538 150.828 89.9813 151.16 91.0348 151.44C91.5558 151.588 92.0818 151.672 92.5188 151.792C92.9628 151.911 93.2303 152.243 93.4233 152.534C93.6163 152.828 93.7693 153.078 93.9023 153.23C94.0328 153.384 94.1253 153.449 94.1318 153.442C94.1418 153.431 94.0673 153.351 93.9573 153.188C93.8443 153.027 93.7128 152.775 93.5293 152.466C93.4353 152.313 93.3233 152.145 93.1673 151.991C93.0138 151.835 92.8008 151.709 92.5688 151.636C92.1018 151.498 91.6033 151.417 91.0803 151.268C90.0353 150.99 89.1053 150.678 88.4288 150.46C87.7533 150.239 87.3323 150.11 87.3238 150.133Z" fill="#FF9C6A"/>
<path d="M86.4689 154.201C86.4604 154.224 86.7424 154.355 87.2079 154.542C87.6734 154.73 88.3234 154.971 89.0489 155.214C89.7754 155.457 90.4399 155.655 90.9244 155.786C91.4089 155.917 91.7129 155.981 91.7194 155.958C91.7264 155.934 91.4349 155.827 90.9609 155.666C90.4224 155.486 89.7969 155.277 89.1054 155.046C88.4144 154.814 87.7889 154.605 87.2509 154.424C86.7749 154.268 86.4779 154.178 86.4689 154.201Z" fill="#FF9C6A"/>
<path d="M84.8281 157.984C84.8226 158.039 85.9841 158.157 87.3656 158.534C88.7496 158.903 89.8131 159.384 89.8356 159.334C89.8451 159.314 89.5911 159.167 89.1581 158.974C88.7256 158.782 88.1111 158.551 87.4116 158.362C86.7131 158.174 86.0656 158.065 85.5946 158.014C85.1236 157.962 84.8301 157.962 84.8281 157.984Z" fill="#FF9C6A"/>
<path d="M69.4529 164.459L40.0029 159.758C40.0029 159.758 43.5419 144.986 48.7054 144.986C49.4619 144.986 75.6209 153.485 75.6209 153.485L69.4529 164.459Z" fill="#375A64"/>
<path d="M74.6054 158.027C74.6239 158.044 74.8819 157.797 75.2959 157.395C75.7509 156.948 76.2989 156.41 76.9049 155.814C77.5299 155.193 78.0879 154.621 78.4789 154.195C78.8709 153.77 79.0969 153.491 79.0794 153.475C79.0609 153.458 78.8029 153.705 78.3889 154.107C77.9344 154.554 77.3859 155.093 76.7794 155.688C76.1549 156.31 75.5974 156.881 75.2059 157.307C74.8139 157.733 74.5879 158.011 74.6054 158.027Z" fill="#FF9C6A"/>
<path d="M75.6205 153.484C75.6165 153.498 75.4875 153.474 75.246 153.414C74.958 153.338 74.612 153.245 74.1965 153.135C73.2245 152.855 71.9295 152.483 70.359 152.031C67.124 151.081 62.664 149.741 57.7455 148.236C55.0225 147.396 52.4425 146.599 50.152 145.892L50.092 145.873L50.0475 145.813C49.145 144.599 47.815 143.86 46.615 143.494C45.395 143.121 44.2535 143.077 43.3325 143.16C42.406 143.235 41.692 143.439 41.211 143.583C40.7315 143.737 40.483 143.848 40.473 143.828C40.463 143.81 40.6965 143.662 41.17 143.469C41.645 143.286 42.362 143.042 43.3085 142.932C44.249 142.814 45.4295 142.827 46.7055 143.189C47.9705 143.557 49.354 144.272 50.368 145.604L50.2635 145.526C52.558 146.221 55.142 147.005 57.8695 147.832C62.788 149.337 67.234 150.722 70.4465 151.745C72.0005 152.249 73.2825 152.665 74.2445 152.977C74.651 153.118 74.9895 153.235 75.271 153.333C75.5045 153.419 75.625 153.47 75.6205 153.484Z" fill="#1A2E35"/>
<path d="M67.8184 106.269C68.0644 105.45 69.4479 97.8822 70.0104 96.1222C70.8039 93.6397 77.2544 89.2002 77.2544 89.2002C77.2544 89.2002 76.2429 86.8697 73.4964 88.0812C70.2449 89.5152 68.6374 91.9292 67.8184 91.4382C66.9994 90.9462 61.8919 85.7472 60.4989 85.9112C59.1069 86.0752 58.8009 87.5037 59.2924 88.0772C59.7839 88.6507 60.3354 89.5977 60.3354 89.5977C60.3354 89.5977 57.3864 88.7102 57.9599 91.9387C57.9599 91.9387 54.6014 89.8432 54.9289 94.2667C54.9289 94.2667 52.7174 93.3657 52.2254 94.9222C51.7344 96.4782 53.1919 98.2807 53.9289 99.5092C54.6664 100.738 57.0589 107.865 57.0589 107.865L57.0869 114.148L68.8299 111.734L67.8184 106.269Z" fill="#FFC19D"/>
<path d="M67.8184 106.269C67.8274 106.269 67.8584 106.392 67.9109 106.629C67.9659 106.892 68.0389 107.241 68.1314 107.683C68.3194 108.635 68.5859 109.989 68.9269 111.716L68.9454 111.81L68.8499 111.831C65.9499 112.443 61.9394 113.29 57.1194 114.308L56.9254 114.349L56.9239 114.149C56.9094 112.214 56.8934 110.097 56.8764 107.866L56.8859 107.923C56.0479 105.506 55.1769 102.906 54.0829 100.28C53.5479 99.0148 52.4329 97.9123 52.0314 96.3773C51.9329 95.9973 51.8874 95.5873 51.9534 95.1773C52.0149 94.7843 52.2014 94.3308 52.5894 94.0828C52.9669 93.8328 53.4144 93.7783 53.8184 93.8068C54.2304 93.8368 54.6169 93.9263 55.0079 94.0728L54.7204 94.2823C54.7039 93.8498 54.6869 93.4108 54.7489 92.9583C54.8299 92.5168 54.9289 92.0243 55.3104 91.6513C55.6799 91.2623 56.2614 91.1783 56.7294 91.2618C57.2129 91.3413 57.6499 91.5138 58.0714 91.7598L57.7519 91.9758C57.6729 91.3823 57.5714 90.6588 57.9714 90.0083C58.2199 89.5993 58.6854 89.3653 59.1174 89.3048C59.5589 89.2413 59.9754 89.2863 60.3964 89.3953L60.1529 89.7038C59.8584 89.2113 59.5424 88.7193 59.1914 88.2853C58.9639 88.0583 58.8444 87.6653 58.8634 87.3468C58.8804 87.0153 58.9929 86.6953 59.1829 86.4283C59.3724 86.1603 59.6444 85.9533 59.9439 85.8363C60.0949 85.7818 60.2474 85.7373 60.4034 85.7163C60.5539 85.6953 60.7649 85.7188 60.9119 85.7598C61.5144 85.9553 61.9759 86.2923 62.4434 86.6178C64.2754 87.9553 65.8454 89.4913 67.4289 90.8778C67.6179 91.0318 67.8514 91.2508 67.9894 91.2898C68.1314 91.3358 68.3669 91.2263 68.5699 91.1048C68.9889 90.8448 69.3879 90.5103 69.7909 90.1983C70.5929 89.5618 71.4204 88.9663 72.2889 88.4783C73.1524 88.0228 74.0624 87.5173 75.0889 87.5598C76.1184 87.5818 77.0029 88.2663 77.4134 89.1313L77.4729 89.2573L77.3524 89.3433C74.8389 91.1298 72.5794 92.8888 70.9814 94.7808C70.5834 95.2573 70.2729 95.7593 70.0964 96.2938C69.9319 96.8453 69.8044 97.3943 69.6819 97.9183C69.4504 98.9703 69.2384 99.9363 69.0464 100.811C68.6784 102.536 68.3879 103.897 68.1829 104.857C68.0794 105.321 67.9954 105.676 67.9324 105.914C67.8714 106.151 67.8184 106.269 67.8184 106.269C67.8074 106.269 67.8364 106.144 67.8809 105.902C67.9309 105.636 67.9974 105.283 68.0814 104.836C68.2639 103.871 68.5234 102.504 68.8524 100.771C69.0319 99.8928 69.2304 98.9218 69.4469 97.8653C69.5634 97.3368 69.6839 96.7878 69.8469 96.2183C70.0289 95.6403 70.3629 95.0938 70.7629 94.6063C72.3849 92.6498 74.6309 90.8783 77.1564 89.0578L77.0954 89.2693C76.7344 88.5308 75.9579 87.9273 75.0749 87.9218C74.1879 87.8818 73.3209 88.3508 72.4739 88.8058C71.6304 89.2853 70.8269 89.8678 70.0314 90.5038C69.6284 90.8173 69.2374 91.1518 68.7729 91.4428C68.5374 91.5688 68.2729 91.7548 67.8899 91.6738C67.5284 91.5408 67.3934 91.3468 67.1689 91.1808C65.5674 89.7868 63.9979 88.2618 62.2029 86.9558C61.7564 86.6418 61.2814 86.3138 60.7979 86.1618C60.6759 86.1343 60.5929 86.1188 60.4659 86.1298C60.3384 86.1468 60.2179 86.1833 60.0999 86.2248C59.8674 86.3163 59.6664 86.4718 59.5244 86.6733C59.2414 87.0693 59.1704 87.6673 59.5164 88.0173C59.8954 88.4858 60.2109 88.9788 60.5179 89.4913L60.7844 89.9363L60.2744 89.7998C59.5904 89.6173 58.6899 89.6368 58.3279 90.2363C58.0289 90.6973 58.0879 91.3533 58.1679 91.9018L58.2324 92.3438L57.8479 92.1183C57.4884 91.9073 57.0699 91.7433 56.6679 91.6798C56.2629 91.6118 55.8599 91.6818 55.6064 91.9513C55.0864 92.5128 55.1014 93.4588 55.1374 94.2513L55.1519 94.5703L54.8499 94.4603C54.1879 94.2188 53.3609 94.0763 52.8229 94.4253C52.5559 94.5943 52.4184 94.9043 52.3604 95.2448C52.3054 95.5823 52.3409 95.9348 52.4289 96.2758C52.6069 96.9628 52.9679 97.6028 53.3484 98.2168C53.7219 98.8263 54.1744 99.4328 54.4479 100.12C55.5484 102.786 56.4029 105.376 57.2319 107.807L57.2409 107.834L57.2414 107.864C57.2444 110.096 57.2469 112.212 57.2499 114.147L57.0539 113.988C61.8844 113.023 65.9039 112.219 68.8104 111.638L68.7334 111.752C68.4319 110.01 68.1954 108.644 68.0289 107.684C67.9574 107.24 67.9014 106.891 67.8589 106.627C67.8234 106.39 67.8094 106.268 67.8184 106.269Z" fill="#FF9C6A"/>
<path d="M60.3458 89.6793C60.3143 89.7193 60.9773 90.2858 61.7713 91.0088C62.5663 91.7308 63.1933 92.3373 63.2298 92.3023C63.2648 92.2698 62.6918 91.6043 61.8908 90.8773C61.0918 90.1493 60.3748 89.6418 60.3458 89.6793Z" fill="#FF9C6A"/>
<path d="M57.7194 91.7623C57.6774 91.7798 57.9289 92.4153 58.4429 93.0743C58.9539 93.7363 59.5064 94.1383 59.5339 94.1018C59.5684 94.0618 59.0804 93.6098 58.5839 92.9653C58.0829 92.3238 57.7664 91.7388 57.7194 91.7623Z" fill="#FF9C6A"/>
<path d="M54.9741 94.1048C54.9341 94.1333 55.2106 94.5848 55.5911 95.1123C55.9721 95.6398 56.3126 96.0443 56.3526 96.0153C56.3926 95.9868 56.1161 95.5358 55.7356 95.0078C55.3551 94.4803 55.0141 94.0763 54.9741 94.1048Z" fill="#FF9C6A"/>
<path d="M100.436 104.022L87.8058 116.624L74.8483 132.903L69.6953 111.209L56.5283 113.915C56.5283 113.915 57.4573 138.421 61.5093 149.527C62.2803 151.641 64.5618 153.212 65.5793 153.696C71.9448 156.719 78.1593 152.041 78.1593 152.041C78.1593 152.041 104.716 134.218 107.594 122.286C108.954 116.651 108.409 109.953 106.093 107.195C104.057 104.77 100.436 104.022 100.436 104.022Z" fill="#375A64"/>
<path d="M107.594 122.286C107.594 122.286 107.564 122.417 107.493 122.672C107.41 122.921 107.344 123.314 107.138 123.788C106.804 124.764 106.116 126.132 105.053 127.774C103.983 129.413 102.509 131.31 100.635 133.362C98.7534 135.407 96.4999 137.634 93.8799 139.95C91.2694 142.278 88.3024 144.703 85.0359 147.2C83.4014 148.447 81.6904 149.709 79.9019 150.974C79.4524 151.287 78.9999 151.602 78.5439 151.92C78.0929 152.231 77.6214 152.56 77.1294 152.836C76.1424 153.394 75.0874 153.864 73.9764 154.212C71.7669 154.927 69.2679 155.071 66.9209 154.345C66.6224 154.275 66.3484 154.129 66.0599 154.024C65.7759 153.907 65.4839 153.805 65.2134 153.646C64.6689 153.346 64.1629 152.983 63.6804 152.587C62.7314 151.787 61.8644 150.808 61.3999 149.596C60.5584 147.213 59.9574 144.717 59.4249 142.172C58.9414 139.618 58.4924 137.018 58.1574 134.371C57.2289 127.311 56.6999 120.434 56.4029 113.92L56.3979 113.813L56.5034 113.792C61.0989 112.85 65.5009 111.948 69.6714 111.094L69.7829 111.071L69.8089 111.182C71.7559 119.424 73.4879 126.757 74.9349 132.882L74.7829 132.842C79.2304 128.058 82.7999 124.218 85.2639 121.568C86.4939 120.253 87.4464 119.234 88.0979 118.538C88.4194 118.198 88.6654 117.938 88.8364 117.757C89.0039 117.582 89.0939 117.498 89.0939 117.498C89.0939 117.498 89.0164 117.594 88.8554 117.774C88.6879 117.959 88.4484 118.225 88.1349 118.572C87.4914 119.276 86.5504 120.305 85.3354 121.634C82.8854 124.297 79.3359 128.156 74.9134 132.963L74.8004 133.086L74.7619 132.923C73.2999 126.802 71.5489 119.473 69.5814 111.236L69.7184 111.323C65.5494 112.183 61.1479 113.09 56.5539 114.038L56.6539 113.91C56.9564 120.413 57.4884 127.288 58.4154 134.337C58.7499 136.98 59.1974 139.574 59.6789 142.121C60.2084 144.658 60.8074 147.145 61.6394 149.507C62.0774 150.657 62.9154 151.612 63.8419 152.394C64.3119 152.78 64.8084 153.136 65.3339 153.427C65.5914 153.578 65.8769 153.679 66.1549 153.793C66.4364 153.895 66.7034 154.04 66.9954 154.107C69.2849 154.818 71.7289 154.683 73.9049 153.983C74.9989 153.642 76.0399 153.181 77.0129 152.633C77.5029 152.357 77.9499 152.047 78.4129 151.729C78.8684 151.412 79.3209 151.098 79.7699 150.787C81.5584 149.527 83.2699 148.27 84.9054 147.028C88.1734 144.542 91.1434 142.127 93.7579 139.812C96.3814 137.508 98.6404 135.295 100.527 133.263C102.407 131.225 103.889 129.344 104.968 127.719C106.04 126.09 106.74 124.736 107.089 123.769C107.302 123.3 107.376 122.911 107.468 122.664C107.547 122.413 107.594 122.286 107.594 122.286Z" fill="#1A2E35"/>
<path d="M77.2438 142.866C77.1973 142.855 77.3518 142.228 77.4323 141.2C77.4823 140.687 77.4743 140.072 77.4383 139.394C77.3833 138.716 77.2693 137.976 77.0753 137.216C76.6868 135.692 76.0318 134.411 75.5033 133.528C74.9658 132.646 74.5678 132.139 74.6038 132.111C74.6178 132.1 74.7288 132.216 74.9188 132.439C75.1128 132.657 75.3648 132.997 75.6588 133.429C76.2343 134.298 76.9303 135.593 77.3278 137.151C77.5258 137.927 77.6348 138.686 77.6778 139.379C77.7013 140.072 77.6898 140.699 77.6153 141.218C77.5528 141.738 77.4698 142.154 77.3888 142.435C77.3118 142.717 77.2613 142.87 77.2438 142.866Z" fill="#1A2E35"/>
<path d="M75.4468 83.854C75.4233 83.923 75.1518 83.893 74.7368 83.8085C74.3213 83.7265 73.7643 83.5995 73.1448 83.5515C72.5243 83.4995 71.9698 83.5445 71.5883 83.645C71.1983 83.7355 71.0343 83.894 70.9708 83.8675C70.9403 83.8535 70.9398 83.767 71.0183 83.6505C71.0958 83.535 71.2483 83.4065 71.4558 83.3015C71.8688 83.0865 72.5088 82.9745 73.1863 83.0325C73.8668 83.0855 74.4528 83.283 74.8483 83.4575C75.2453 83.635 75.4693 83.787 75.4468 83.854Z" fill="#1A2E35"/>
<mask id="mask8_107_828" style="mask-type:luminance" maskUnits="userSpaceOnUse" x="81" y="120" width="24" height="45">
<path d="M81.0234 120.232H104.263V164.182H81.0234V120.232Z" fill="white"/>
</mask>
<g mask="url(#mask8_107_828)">
<g opacity="0.300003">
<path d="M95.5092 164.181C95.5092 164.181 89.7277 163.472 86.6177 162.991C84.9177 162.729 82.3297 162.455 81.8402 161.98C81.2317 161.39 81.2357 160.408 81.1712 159.562C80.0687 145.139 85.0272 129.537 100.354 120.231L104.263 121.259L104.011 130.655L95.5092 164.181Z" fill="black"/>
</g>
</g>
</g>
<mask id="mask9_107_828" style="mask-type:luminance" maskUnits="userSpaceOnUse" x="0" y="0" width="250" height="250">
<path d="M0 1.52588e-05H250V250H0V1.52588e-05Z" fill="white"/>
</mask>
<g mask="url(#mask9_107_828)">
<path d="M185.869 51.7711C187.831 51.9466 189.802 50.4611 190.174 48.5271C190.546 46.5936 189.266 44.4826 187.379 43.9181C188.566 42.6421 188.821 40.5901 187.983 39.0621C187.145 37.5341 185.278 36.6461 183.564 36.9601C183.45 35.2431 182.384 33.6206 180.852 32.8361C179.321 32.0521 177.381 32.1346 175.921 33.0456C173.983 31.4631 170.918 31.4761 168.993 33.0756C167.316 32.8076 165.516 33.7411 164.769 35.2671C164.021 36.7926 164.388 38.7866 165.628 39.9476" fill="#1A2E35"/>
<path d="M168.226 37.0613L169.109 37.0408C177.992 36.8338 185.546 43.4818 186.466 52.3203C187.322 60.5408 188.163 69.6338 188.211 74.0533C188.312 83.2048 179.194 84.8408 179.194 84.8408L180.224 95.8138L158.005 95.6438L155.111 55.8268C154.071 46.3468 158.721 37.8393 168.226 37.0613Z" fill="#FFC19D"/>
<path d="M179.206 84.8385C179.206 84.8385 172.826 85.3135 166.591 81.597C166.591 81.597 170.309 88.266 179.418 87.2295L179.206 84.8385Z" fill="#FF9C6A"/>
<path d="M183.672 62.2493C183.713 62.9388 183.162 63.5413 182.443 63.5968C181.725 63.6518 181.109 63.1398 181.069 62.4503C181.028 61.7608 181.578 61.1573 182.296 61.1018C183.015 61.0463 183.631 61.5603 183.672 62.2493Z" fill="#1A2E35"/>
<path d="M184.604 56.8424C184.446 57.0164 183.439 56.3069 182.033 56.3434C180.629 56.3599 179.613 57.1074 179.457 56.9389C179.38 56.8639 179.538 56.5524 179.98 56.2154C180.414 55.8789 181.161 55.5449 182.037 55.5279C182.913 55.5124 183.657 55.8179 184.088 56.1379C184.529 56.4594 184.682 56.7639 184.604 56.8424Z" fill="#1A2E35"/>
<path d="M171.566 62.2494C171.606 62.9389 171.056 63.5414 170.337 63.5964C169.619 63.6524 169.003 63.1399 168.962 62.4499C168.922 61.7609 169.473 61.1574 170.19 61.1019C170.909 61.0464 171.525 61.5604 171.566 62.2494Z" fill="#1A2E35"/>
<path d="M170.791 57.4266C170.633 57.6006 169.624 56.8916 168.22 56.9281C166.815 56.9441 165.8 57.6916 165.644 57.5231C165.567 57.4486 165.723 57.1371 166.167 56.7996C166.601 56.4636 167.348 56.1296 168.224 56.1126C169.099 56.0966 169.844 56.4021 170.275 56.7221C170.714 57.0436 170.868 57.3486 170.791 57.4266Z" fill="#1A2E35"/>
<path d="M176.136 67.7342C176.127 67.6542 176.998 67.4827 178.409 67.2687C178.768 67.2237 179.106 67.1442 179.161 66.8977C179.239 66.6362 179.08 66.2527 178.896 65.8392C178.538 64.9787 178.164 64.0762 177.771 63.1302C176.206 59.2722 175.064 56.0972 175.22 56.0352C175.376 55.9742 176.771 59.0507 178.336 62.9082C178.713 63.8597 179.074 64.7667 179.417 65.6342C179.562 66.0397 179.807 66.4967 179.636 67.0392C179.545 67.3097 179.286 67.5107 179.058 67.5777C178.829 67.6537 178.628 67.6622 178.45 67.6767C177.027 67.7867 176.143 67.8132 176.136 67.7342Z" fill="#1A2E35"/>
<path d="M171.088 54.5232C170.911 54.8842 169.697 54.5257 168.212 54.5122C166.728 54.4652 165.485 54.7742 165.34 54.4067C165.278 54.2317 165.534 53.9052 166.062 53.6077C166.585 53.3097 167.387 53.0707 168.276 53.0877C169.166 53.1067 169.945 53.3777 170.44 53.6967C170.94 54.0152 171.166 54.3512 171.088 54.5232Z" fill="#1A2E35"/>
<path d="M184.537 51.0435C184.248 51.3695 183.08 51.065 181.684 51.0825C180.288 51.0585 179.112 51.357 178.833 51.029C178.71 50.87 178.888 50.5455 179.397 50.2315C179.899 49.9185 180.744 49.652 181.704 49.654C182.663 49.6575 183.501 49.927 183.994 50.243C184.494 50.56 184.664 50.885 184.537 51.0435Z" fill="#1A2E35"/>
<path d="M185.489 48.1455C185.489 48.1455 182.942 42.4725 180.148 41.2C176.766 39.6595 175.412 43.364 172.204 42.547C168.996 41.731 165.767 40.252 162.567 42.7915C159.065 45.5715 160.779 47.4245 160.654 51.489C160.144 67.967 157.247 72.691 156.212 64.959C156.098 64.112 153.726 63.4915 153.293 59.9115C152.731 55.2695 152.421 49.624 153.382 46.298C154.193 43.4945 155.735 41.5345 158.531 39.3485C162.945 35.897 169.113 35.6815 173.313 36.0055C177.512 36.3295 185.703 40.963 185.489 48.1455Z" fill="#1A2E35"/>
<path d="M156.789 64.6968C156.698 63.2858 155.456 62.1998 154.052 62.3663C152.349 62.5678 150.473 63.5813 150.668 67.1043C151.014 73.3543 157.217 71.7183 157.218 71.5383C157.219 71.4163 156.957 67.3108 156.789 64.6968Z" fill="#FFC19D"/>
<path d="M155.728 69.2619C155.7 69.2434 155.623 69.3444 155.444 69.4389C155.269 69.5309 154.964 69.6044 154.631 69.5004C153.957 69.2949 153.344 68.2774 153.251 67.1524C153.204 66.5849 153.293 66.0364 153.47 65.5769C153.635 65.1089 153.913 64.7734 154.242 64.6959C154.569 64.6009 154.815 64.7869 154.901 64.9589C154.995 65.1289 154.962 65.2559 154.996 65.2649C155.014 65.2799 155.124 65.1524 155.059 64.8974C155.027 64.7744 154.945 64.6309 154.792 64.5194C154.635 64.4054 154.411 64.3554 154.181 64.3934C153.701 64.4534 153.292 64.9209 153.097 65.4254C152.877 65.9334 152.763 66.5504 152.816 67.1879C152.926 68.4449 153.636 69.5884 154.554 69.7989C155 69.8899 155.359 69.7369 155.54 69.5789C155.725 69.4139 155.75 69.2724 155.728 69.2619Z" fill="#FF9C6A"/>
<path d="M156.629 52.5758C157.454 53.1113 158.325 53.6628 159.306 53.7373C160.287 53.8113 161.394 53.2233 161.536 52.2498C161.6 51.8123 161.482 51.3098 161.76 50.9668C162.092 50.5573 162.726 50.6683 163.251 50.7118C165.074 50.8623 167.152 48.8043 167.574 47.0243C168.053 47.7078 169.074 47.8943 169.766 47.4253C170.457 46.9568 170.707 46.6923 171.241 46.0503C171.776 45.4088 172.534 44.8283 173.363 44.9263C173.827 44.9813 174.267 45.2468 174.731 45.1943C175.551 45.1023 175.929 44.1313 176.034 43.3133C176.14 42.4953 176.214 41.5413 176.899 41.0823C177.534 40.6563 178.375 40.8743 179.134 40.9683C179.893 41.0618 180.865 40.8618 181.041 40.1178C181.134 39.7278 180.958 39.3238 180.735 38.9898C179.726 37.4793 177.586 36.8478 175.918 37.5678C175.258 35.5153 173.287 33.9523 171.138 33.7758C168.989 33.5998 166.791 34.8213 165.805 36.7388C164.455 35.5703 162.523 35.1118 160.792 35.5493C159.061 35.9868 157.578 37.3083 156.945 38.9783C155.415 38.6133 153.694 39.2423 152.759 40.5078C151.824 41.7738 151.73 43.6033 152.529 44.9593C151.419 45.6278 150.483 46.7668 150.49 48.0623C150.497 49.3573 151.788 50.6178 153.029 50.2483C152.548 51.2678 152.991 52.6268 153.98 53.1668C154.97 53.7073 156.352 53.3453 156.95 52.3888" fill="#1A2E35"/>
<path d="M176.425 39.3973C176.43 39.3978 176.431 39.4363 176.427 39.5118C176.42 39.5873 176.418 39.7008 176.395 39.8468C176.344 40.1368 176.238 40.5678 175.969 41.0628C175.697 41.5503 175.273 42.1168 174.616 42.5738C173.973 43.0353 173.085 43.3958 172.071 43.3638L172.174 43.2233C172.38 43.7533 172.342 44.3968 172.089 44.9528C171.849 45.5178 171.463 46.0233 171.054 46.5158C170.844 46.7528 170.663 47.0298 170.371 47.2503C170.086 47.4613 169.742 47.5878 169.388 47.6408C168.685 47.7473 167.884 47.5478 167.358 46.9663L167.59 46.8943C167.46 48.1413 166.782 49.4018 165.676 50.1863C165.092 50.6298 164.362 50.9098 163.638 50.9073C162.914 50.9173 162.236 50.7203 161.604 50.5103L161.769 50.4328C161.451 51.2183 160.95 51.8933 160.334 52.3978C159.729 52.9008 158.915 53.2068 158.169 53.0418C156.685 52.7638 155.677 51.5588 155.453 50.4073L155.596 50.4703C154.873 50.8863 154.088 50.9433 153.454 50.8363C152.812 50.7343 152.304 50.4678 151.94 50.2028C151.574 49.9318 151.355 49.6498 151.223 49.4548C151.101 49.2513 151.05 49.1383 151.057 49.1348C151.088 49.1083 151.275 49.6053 152.001 50.1168C152.363 50.3603 152.859 50.6028 153.477 50.6863C154.087 50.7758 154.83 50.7043 155.497 50.3058L155.613 50.2368L155.641 50.3688C155.864 51.4423 156.834 52.5663 158.209 52.8083C158.886 52.9503 159.601 52.6773 160.174 52.2008C160.75 51.7253 161.227 51.0748 161.522 50.3368L161.569 50.2198L161.688 50.2588C162.31 50.4643 162.965 50.6478 163.634 50.6368C164.304 50.6358 164.958 50.3868 165.516 49.9663C166.56 49.2238 167.197 48.0443 167.326 46.8638L167.358 46.5668L167.559 46.7913C168.002 47.2893 168.719 47.4813 169.351 47.3868C169.669 47.3408 169.974 47.2298 170.222 47.0473C170.465 46.8728 170.653 46.5988 170.867 46.3593C171.276 45.8748 171.651 45.3888 171.879 44.8628C172.12 44.3428 172.156 43.7773 171.979 43.2968L171.924 43.1488L172.081 43.1558C173.037 43.1978 173.893 42.8703 174.521 42.4368C175.163 42.0088 175.588 41.4708 175.867 41.0048C176.414 40.0458 176.38 39.3838 176.425 39.3973Z" fill="#375A64"/>
<path d="M131.436 94.833C131.436 94.833 107.925 103.114 101.124 106.534C95.8108 109.207 92.4443 118.901 100.62 122.941C106.717 125.954 139.72 120.196 139.72 120.196L131.436 94.833Z" fill="#FFC19D"/>
<path d="M203.21 177.15L143.473 174.889L141.31 195.224L138.917 236.014L169.41 236.143C169.423 235.97 173.213 213.214 173.213 213.214L174.936 212.763L174.777 236.143H203.357C204.858 216.796 205.715 200.545 205.768 199.016C206.183 186.93 203.21 177.15 203.21 177.15Z" fill="#1A2E35"/>
<path d="M171.063 200.54C171.052 200.568 171.372 200.737 171.971 201.002C172.571 201.255 173.455 201.642 174.64 201.811C175.231 201.893 175.901 201.896 176.597 201.742C177.289 201.589 178.022 201.261 178.602 200.673C179.182 200.085 179.537 199.28 179.75 198.452C179.966 197.616 180.073 196.752 180.211 195.872C180.74 192.346 181.063 189.132 181.232 186.802C181.317 185.638 181.366 184.694 181.387 184.041C181.407 183.388 181.401 183.026 181.37 183.024C181.339 183.022 181.286 183.38 181.212 184.028C181.132 184.771 181.033 185.689 180.915 186.774C180.666 189.091 180.293 192.289 179.766 195.806C179.496 197.544 179.337 199.311 178.303 200.385C177.27 201.44 175.777 201.61 174.677 201.495C173.54 201.374 172.65 201.041 172.034 200.839C171.419 200.626 171.075 200.51 171.063 200.54Z" fill="#375A64"/>
<path d="M176.759 183.831C176.765 183.811 176.617 183.726 176.317 183.72C176.021 183.71 175.575 183.819 175.145 184.152C174.733 184.483 174.306 185.063 174.32 185.831C174.318 186.608 174.956 187.346 175.758 187.597C176.553 187.869 177.504 187.652 177.962 187.023C178.427 186.413 178.426 185.692 178.289 185.182C178.14 184.659 177.845 184.308 177.6 184.14C177.355 183.968 177.185 183.949 177.178 183.968C177.123 184.028 177.791 184.299 177.98 185.255C178.064 185.706 178.015 186.311 177.639 186.763C177.279 187.224 176.557 187.386 175.898 187.169C175.238 186.954 174.751 186.397 174.734 185.811C174.699 185.225 175.017 184.708 175.352 184.394C176.069 183.735 176.768 183.913 176.759 183.831Z" fill="#375A64"/>
<path d="M143.473 194.001C143.472 194.032 143.731 194.059 144.201 194.083C144.671 194.114 145.355 194.097 146.194 194.021C147.872 193.875 150.185 193.369 152.527 192.269C154.865 191.16 156.727 189.696 157.906 188.493C158.498 187.893 158.945 187.376 159.22 186.993C159.501 186.615 159.643 186.398 159.619 186.379C159.557 186.329 158.908 187.139 157.686 188.263C156.469 189.388 154.621 190.777 152.335 191.862C150.045 192.937 147.799 193.481 146.157 193.706C144.512 193.935 143.474 193.92 143.473 194.001Z" fill="#375A64"/>
<path d="M204.414 173.834C203.242 171.166 203.459 170.921 203.459 170.921L200.138 141.857L196.948 113.584L194.361 92.6564L179.418 89.4564C179.418 89.4564 177.698 94.2234 170.474 94.3679C162.152 94.5339 157.383 87.0924 157.383 87.0924L133.488 92.2229L142.474 153.854L143.551 170.454C143.551 170.454 141.767 173.14 141.767 176.022C141.767 178.903 141.65 180.824 141.65 180.824C163.829 186.917 185.839 192.194 206.09 186.295C206.09 186.295 205.586 176.502 204.414 173.834Z" fill="#375A64"/>
<path d="M188.91 91.5649C188.91 91.5649 197.523 92.5269 200.579 95.7709C203.635 99.0149 213.404 115.065 213.404 115.065L199.215 134.477L192.641 125.507L188.91 91.5649Z" fill="#375A64"/>
<path d="M195.476 101.61C195.596 101.598 196.953 112.267 198.507 125.436C200.062 138.61 201.225 149.295 201.106 149.306C200.987 149.318 199.63 138.651 198.075 125.478C196.521 112.309 195.357 101.621 195.476 101.61Z" fill="#1A2E35"/>
<path d="M133.488 92.2227L114.356 100.714L121.279 120.082L139.72 123.004L133.488 92.2227Z" fill="#375A64"/>
<path d="M136.122 105.06C136.249 105.047 137.162 112.603 138.16 121.935C139.159 131.271 139.865 138.847 139.737 138.861C139.61 138.875 138.697 131.32 137.699 121.985C136.7 112.652 135.994 105.074 136.122 105.06Z" fill="#1A2E35"/>
<mask id="mask10_107_828" style="mask-type:luminance" maskUnits="userSpaceOnUse" x="140" y="156" width="26" height="48">
<path d="M140.839 156.98H165.764V203.258H140.839V156.98Z" fill="white"/>
</mask>
<g mask="url(#mask10_107_828)">
<g opacity="0.300003">
<path d="M140.839 203.258C151.227 199.523 156.982 192.164 161.628 184.359C166.274 176.554 166.938 165.563 163.964 156.98C163.964 156.98 142.497 177.747 142.344 178.205C142.191 178.663 140.839 203.258 140.839 203.258Z" fill="black"/>
</g>
</g>
<mask id="mask11_107_828" style="mask-type:luminance" maskUnits="userSpaceOnUse" x="170" y="91" width="31" height="55">
<path d="M170.023 91.565H200.699V145.075H170.023V91.565Z" fill="white"/>
</mask>
<g mask="url(#mask11_107_828)">
<g opacity="0.300003">
<path d="M170.058 94.0987C169.801 96.2072 170.979 98.2402 172.424 99.7972C173.87 101.354 175.619 102.623 176.936 104.29C178.44 106.192 179.3 108.51 180.137 110.786C181.885 115.538 183.633 120.29 185.381 125.041C186.887 129.134 188.412 133.267 190.799 136.916C193.187 140.565 196.548 143.741 200.699 145.075L197.547 118.304L180.92 91.5652L170.058 94.0987Z" fill="black"/>
</g>
</g>
<path d="M187.287 94.3317C187.287 93.9952 187.554 81.5952 186.722 80.2482C185.891 78.9017 185.225 77.6392 185.059 76.3767C185.059 76.3767 185.513 75.6402 184.686 75.1787C183.86 74.7172 182.549 75.8422 182.52 77.8327C182.492 79.8227 182.72 83.2267 182.72 83.2267C182.72 83.2267 173.572 78.0347 171.064 77.8902C168.557 77.7462 164.795 77.2847 164.595 78.4962C164.396 79.7072 164.567 79.9957 165.878 80.4572C167.189 80.9187 169.269 81.2362 171.321 81.9287C173.373 82.6207 174.313 83.0912 174.313 83.0912C174.313 83.0912 169.64 81.7152 168.614 83.0912C167.588 84.4667 167.73 85.7072 168.386 86.3707C168.386 86.3707 166.989 86.9477 167.132 88.4762C167.274 90.0052 167.958 90.3797 167.958 90.3797C167.958 90.3797 166.59 91.4182 167.246 92.7452C167.901 94.0722 169.44 93.2357 170.893 94.7357C172.347 96.2352 175.966 99.7547 177.362 100.533C178.759 101.312 181.95 101.629 181.95 101.629L187.287 94.3317Z" fill="#FFC19D"/>
<path d="M187.287 94.3317C187.29 94.3327 187.262 94.3752 187.205 94.4582C187.142 94.5477 187.057 94.6692 186.946 94.8272C186.709 95.1587 186.366 95.6377 185.921 96.2582C185.01 97.5172 183.684 99.3487 182.005 101.669L181.982 101.7L181.944 101.696C181.312 101.63 180.654 101.537 179.971 101.408C179.288 101.278 178.577 101.12 177.865 100.851C177.508 100.723 177.161 100.525 176.844 100.294C176.522 100.069 176.213 99.8192 175.899 99.5642C175.277 99.0482 174.655 98.4927 174.023 97.9112C173.392 97.3287 172.752 96.7192 172.103 96.0842C171.781 95.7642 171.455 95.4402 171.125 95.1122C170.799 94.7722 170.479 94.4477 170.071 94.2237C169.67 93.9907 169.208 93.8767 168.735 93.7722C168.274 93.6667 167.717 93.5567 167.369 93.1202C167.029 92.7142 166.882 92.1412 167.012 91.6122C167.146 91.0847 167.475 90.6412 167.893 90.2942L167.906 90.4742C167.544 90.2232 167.368 89.8577 167.228 89.4822C167.1 89.1002 167.029 88.7077 167.015 88.2922C167.001 87.8747 167.125 87.4452 167.365 87.0892C167.612 86.7362 167.942 86.4547 168.343 86.2667L168.306 86.4497C167.72 85.8647 167.632 84.9312 167.902 84.1832C168.028 83.8007 168.222 83.4442 168.455 83.1177C168.562 82.9512 168.732 82.7792 168.917 82.6837C169.103 82.5807 169.302 82.5147 169.503 82.4657C170.311 82.2957 171.13 82.3657 171.936 82.4692C172.745 82.5827 173.546 82.7537 174.346 82.9777L174.26 83.1967C173.059 82.6447 171.759 82.1792 170.437 81.7767C169.108 81.3797 167.719 81.1202 166.334 80.7287C165.838 80.5712 165.344 80.4292 164.882 80.1332C164.652 79.9842 164.462 79.7177 164.427 79.4347C164.384 79.1572 164.419 78.8952 164.453 78.6407C164.472 78.5242 164.483 78.3677 164.568 78.2327C164.649 78.1027 164.763 78.0082 164.881 77.9347C165.122 77.7957 165.379 77.7272 165.632 77.6777C166.14 77.5842 166.647 77.5672 167.149 77.5647C168.152 77.5657 169.139 77.6422 170.115 77.7097C170.603 77.7497 171.081 77.7547 171.582 77.8512C171.823 77.9052 172.055 77.9787 172.292 78.0417L172.977 78.2797C174.777 78.9637 176.462 79.7927 178.089 80.6172C179.714 81.4477 181.276 82.2892 182.773 83.1332L182.613 83.2337C182.5 81.2692 182.384 79.3892 182.435 77.5692C182.503 76.6627 182.847 75.7292 183.605 75.2037C183.796 75.0812 184.017 74.9947 184.251 74.9862C184.484 74.9727 184.723 75.0687 184.895 75.2037C185.074 75.3367 185.224 75.5382 185.262 75.7697C185.3 76.0017 185.246 76.2242 185.137 76.4242L185.149 76.3647C185.347 77.7497 186.038 78.9432 186.684 80.0282C186.763 80.1562 186.859 80.3092 186.901 80.4687C186.955 80.6242 186.983 80.7792 187.015 80.9332C187.071 81.2417 187.111 81.5462 187.142 81.8467C187.205 82.4467 187.241 83.0297 187.271 83.5927C187.38 85.8462 187.378 87.7917 187.378 89.3827C187.373 90.9737 187.351 92.2112 187.332 93.0507C187.32 93.4632 187.311 93.7817 187.305 94.0062C187.297 94.2202 187.287 94.3317 187.287 94.3317C187.287 94.3317 187.279 94.2222 187.278 94.0057C187.278 93.7812 187.279 93.4627 187.279 93.0497C187.278 92.2012 187.277 90.9662 187.276 89.3827C187.261 87.7932 187.248 85.8482 187.126 83.6007C187.093 83.0392 187.053 82.4587 186.988 81.8632C186.956 81.5657 186.915 81.2647 186.858 80.9637C186.794 80.6547 186.734 80.3782 186.543 80.1137C185.89 79.0257 185.181 77.8247 184.969 76.3887L184.964 76.3602L184.982 76.3287C185.065 76.1752 185.113 75.9767 185.08 75.8012C185.05 75.6232 184.936 75.4677 184.782 75.3527C184.476 75.0957 184.046 75.1367 183.71 75.3642C183.032 75.8337 182.694 76.7182 182.634 77.5837C182.59 79.3692 182.71 81.2647 182.827 83.2192L182.839 83.4167L182.667 83.3202C181.172 82.4822 179.609 81.6442 177.987 80.8182C176.363 79.9982 174.678 79.1732 172.897 78.4987L172.222 78.2647C171.993 78.2042 171.764 78.1322 171.534 78.0812C171.082 77.9922 170.584 77.9832 170.098 77.9452C169.123 77.8782 168.139 77.8027 167.149 77.8027C166.656 77.8052 166.157 77.8232 165.677 77.9117C165.214 78.0057 164.675 78.1702 164.689 78.6747C164.656 78.9197 164.627 79.1692 164.663 79.3957C164.695 79.6237 164.823 79.8037 165.019 79.9372C165.418 80.1957 165.922 80.3492 166.402 80.4992C167.765 80.8847 169.164 81.1472 170.504 81.5477C171.845 81.9572 173.133 82.4182 174.366 82.9852L174.28 83.2047C173.496 82.9847 172.698 82.8132 171.904 82.7017C171.114 82.5977 170.306 82.5327 169.555 82.6917C169.185 82.7807 168.834 82.9312 168.642 83.2507C168.42 83.5627 168.236 83.8992 168.119 84.2542C167.867 84.9532 167.956 85.7802 168.466 86.2917L168.578 86.4047L168.429 86.4747C168.083 86.6352 167.766 86.9007 167.55 87.2142C167.335 87.5327 167.224 87.9107 167.236 88.2897C167.247 88.6687 167.316 89.0587 167.434 89.4107C167.553 89.7552 167.75 90.1052 168.01 90.2857L168.136 90.3727L168.023 90.4657C167.647 90.7757 167.333 91.1992 167.218 91.6617C167.102 92.1217 167.233 92.6317 167.529 92.9867C167.817 93.3582 168.312 93.4662 168.779 93.5727C169.253 93.6792 169.742 93.7997 170.168 94.0492C170.6 94.2862 170.949 94.6447 171.264 94.9747C171.592 95.3032 171.917 95.6277 172.237 95.9482C172.882 96.5837 173.519 97.1947 174.146 97.7782C174.774 98.3612 175.392 98.9172 176.008 99.4327C176.632 99.9342 177.226 100.451 177.923 100.703C178.616 100.969 179.322 101.131 179.998 101.264C180.676 101.395 181.332 101.492 181.957 101.563L181.896 101.59C183.594 99.2912 184.934 97.4777 185.855 96.2307C186.313 95.6167 186.667 95.1427 186.912 94.8147C187.03 94.6597 187.12 94.5407 187.187 94.4527C187.25 94.3712 187.287 94.3317 187.287 94.3317Z" fill="#FF9C6A"/>
<path d="M216.933 123.281C216.019 121.534 213.955 117.898 212.96 115.672L206.42 118.049C206.42 118.049 187.897 93.0265 187.306 93.0265C186.714 93.0265 178.669 100.486 178.669 100.486C179.024 100.841 195.702 139.065 202.09 143.205C208.479 147.346 213.24 149.975 216.671 144.06C220.101 138.145 220.955 130.971 216.933 123.281Z" fill="#FFC19D"/>
<path d="M214.796 129.279C214.781 129.286 214.673 129.113 214.489 128.794C214.308 128.473 214.038 128.014 213.697 127.452C213.016 126.327 212.009 124.814 210.786 123.223C209.563 121.632 208.376 120.254 207.513 119.259C207.106 118.791 206.764 118.397 206.49 118.081C206.25 117.801 206.124 117.641 206.136 117.63C206.148 117.619 206.298 117.757 206.559 118.018C206.82 118.278 207.19 118.663 207.639 119.146C208.536 120.113 209.747 121.479 210.976 123.078C212.205 124.676 213.197 126.214 213.843 127.366C214.167 127.942 214.415 128.415 214.572 128.75C214.73 129.084 214.811 129.271 214.796 129.279Z" fill="#FF9C6A"/>
<path d="M177.117 73.5589C176.951 73.6814 176.261 72.9709 175.166 72.5884C174.081 72.1779 173.097 72.2794 173.048 72.0784C173.027 71.9874 173.263 71.8299 173.7 71.7459C174.134 71.6609 174.769 71.6804 175.412 71.9134C176.054 72.1484 176.553 72.5414 176.831 72.8854C177.112 73.2304 177.192 73.5029 177.117 73.5589Z" fill="#1A2E35"/>
<path d="M193.837 173.663C193.841 173.67 193.762 173.716 193.609 173.797C193.452 173.872 193.231 174.006 192.924 174.129C192.316 174.389 191.398 174.691 190.223 174.856C189.049 175.02 187.626 175.037 186.074 174.836C184.52 174.639 182.842 174.248 181.118 173.728C177.674 172.676 174.626 171.522 172.445 170.63C171.355 170.183 170.481 169.801 169.881 169.529C169.602 169.399 169.374 169.292 169.193 169.208C169.037 169.132 168.957 169.088 168.96 169.081C168.964 169.073 169.05 169.102 169.212 169.164C169.398 169.237 169.631 169.33 169.917 169.443C170.56 169.698 171.437 170.047 172.508 170.472C174.701 171.323 177.754 172.45 181.187 173.499C182.902 174.016 184.566 174.41 186.102 174.617C187.637 174.828 189.04 174.828 190.201 174.688C191.363 174.547 192.276 174.273 192.889 174.042C193.498 173.801 193.827 173.643 193.837 173.663Z" fill="#1A2E35"/>
<path d="M148.594 125.958C140.244 120.333 130.312 118.324 123.802 118.32C117.705 118.316 108.732 119.272 100.608 123.847C95.5623 126.689 91.5358 130.573 88.6393 135.392C85.2088 141.1 83.3493 148.164 83.1128 156.388C83.0773 157.622 83.5323 158.79 84.3938 159.677C85.2598 160.569 86.4213 161.061 87.6643 161.062L103.651 161.072C105.907 161.074 107.847 159.392 108.164 157.161C108.876 152.148 111.857 143.709 123.82 143.511C132.938 143.364 136.69 149.96 137.882 152.806C139.822 157.435 139.326 162.924 136.554 167.487C132.295 174.498 124.469 175.566 120.183 175.579C115.254 175.594 111.241 179.593 111.238 184.493L111.227 201.695C111.225 204.208 113.267 206.253 115.779 206.254L131.355 206.265C133.868 206.266 135.913 204.224 135.914 201.712L135.917 198.097C135.917 198.011 135.971 197.936 136.055 197.907C139.584 196.671 146.425 193.684 152.589 187.563C160.459 179.75 164.453 169.661 164.461 157.577C164.472 140.284 155.839 130.837 148.594 125.958Z" fill="#6F15F2"/>
<path d="M124.34 210.591L122.978 210.59C116.464 210.586 111.161 215.882 111.156 222.396C111.152 228.91 116.448 234.213 122.962 234.217L124.325 234.218C130.839 234.223 136.142 228.926 136.146 222.412C136.15 215.898 130.854 210.595 124.34 210.591Z" fill="#6F15F2"/>
<mask id="mask12_107_828" style="mask-type:luminance" maskUnits="userSpaceOnUse" x="103" y="122" width="61" height="35">
<path d="M103.584 122.862H163.967V156.794H103.584V122.862Z" fill="white"/>
</mask>
<g mask="url(#mask12_107_828)">
<g opacity="0.300003">
<path d="M163.859 146.53C163.65 144.769 163.191 143.083 162.542 141.464C159.423 133.683 152.105 128.38 143.776 127.433L103.583 122.862C107.954 127.329 113.66 128.218 119.71 129.786C125.759 131.354 132.272 133.705 138.384 135.006C140.346 135.424 142.372 135.945 143.898 137.246C145.386 138.516 146.217 140.372 147.001 142.164C148.163 144.821 149.325 147.477 150.487 150.133C151.814 153.166 153.58 156.591 157.152 156.787C158.593 156.865 160.008 156.326 161.104 155.386C163.691 153.168 164.237 149.713 163.859 146.53Z" fill="black"/>
</g>
</g>
<path d="M163.288 135.763C162.977 135.216 156.868 127.747 153.831 124.851C151.87 122.981 148.915 121.692 147.063 121.01C147.063 121.01 116.479 109.965 114.356 108.887L100.62 122.941C105.402 124.271 137.869 132.088 145.878 133.846C147.279 135.48 148.689 136.82 148.689 136.82L151.017 142.289C151.017 142.289 151.285 144.28 151.118 146.415C150.95 148.551 152.682 147.718 152.682 147.718C152.682 147.718 152.6 149.045 152.713 150.957C152.714 150.977 152.715 150.996 152.717 151.014C152.83 152.444 154.885 152.621 155.322 151.255L156.9 146.324C156.9 146.324 156.694 150.811 156.609 153.309C156.594 153.762 156.673 154.134 156.813 154.441C157.417 155.765 159.388 155.518 159.723 154.102L161.572 146.301L160.974 141.523L162.524 145.888C162.524 145.888 162.953 148.222 162.866 151.5C162.832 152.811 163.274 153.369 163.817 153.566C164.726 153.897 165.686 153.173 165.765 152.209L166.357 144.98C166.357 144.98 163.599 136.31 163.288 135.763Z" fill="#FFC19D"/>
<path d="M112.383 108.341C112.396 108.284 113.265 108.423 114.633 108.803C116.001 109.178 117.856 109.816 119.862 110.613C121.869 111.41 123.662 112.18 124.961 112.731C126.259 113.286 127.061 113.634 127.038 113.696C127.017 113.754 126.173 113.515 124.841 113.037C123.508 112.562 121.692 111.84 119.692 111.044C117.691 110.25 115.87 109.568 114.536 109.116C113.204 108.66 112.367 108.409 112.383 108.341Z" fill="#FF9C6A"/>
</g>
</svg>
